<?xml version="1.0" encoding="UTF-8" standalone="no"?>
<svg xmlns:xlink="http://www.w3.org/1999/xlink" height="83.15px" width="82.0px" xmlns="http://www.w3.org/2000/svg">
  <g transform="matrix(1.0, 0.0, 0.0, 1.0, -0.35, 0.25)">
    <use height="72.3" transform="matrix(1.0, 0.0, 0.0, 1.0, 13.4, -0.25)" width="68.95" xlink:href="#shape0"/>
    <use height="11.6" transform="matrix(1.0, 0.0, 0.0, 1.0, 0.35, 22.55)" width="21.35" xlink:href="#text0"/>
    <use height="11.6" transform="matrix(1.0, 0.0, 0.0, 1.0, 45.85, 71.3)" width="21.35" xlink:href="#text1"/>
    <use height="30.95" transform="matrix(1.0, 0.0, 0.0, 1.0, 26.15, 26.45)" width="15.75" xlink:href="#shape1"/>
  </g>
  <defs>
    <g id="shape0" transform="matrix(1.0, 0.0, 0.0, 1.0, -13.4, 0.25)">
      <path d="M44.0 47.3 L44.25 38.0 Q44.05 30.1 42.25 24.05 41.65 21.95 37.25 16.25 33.9 11.9 34.75 8.05 35.35 5.15 41.3 3.5 45.4 2.35 50.5 2.05 56.25 1.75 63.6 3.25 73.45 5.35 74.25 9.55 74.95 13.25 71.7 16.85 68.1 20.85 68.0 22.3 67.9 24.3 68.85 35.45 69.25 46.5 66.5 50.55 62.65 56.2 53.1 54.55 49.1 53.85 46.55 51.95 43.8 49.9 44.0 47.3" fill="#b0c963" fill-rule="evenodd" stroke="none"/>
      <path d="M44.0 47.3 Q43.8 49.9 46.55 51.95 49.1 53.85 53.1 54.55 62.65 56.2 66.5 50.55 69.25 46.5 68.85 35.45 67.9 24.3 68.0 22.3 68.1 20.85 71.7 16.85 74.95 13.25 74.25 9.55 73.45 5.35 63.6 3.25 56.25 1.75 50.5 2.05 45.4 2.35 41.3 3.5 35.35 5.15 34.75 8.05 33.9 11.9 37.25 16.25 41.65 21.95 42.25 24.05 44.05 30.1 44.25 38.0 L44.0 47.3 Z" fill="none" stroke="#78ab44" stroke-linecap="butt" stroke-linejoin="miter" stroke-width="1.0"/>
      <path d="M14.3 0.25 L14.3 59.05" fill="none" stroke="#000000" stroke-linecap="butt" stroke-linejoin="miter" stroke-width="1.0"/>
      <path d="M13.9 0.5 L23.25 0.5" fill="none" stroke="#000000" stroke-linecap="butt" stroke-linejoin="miter" stroke-width="1.0"/>
      <path d="M14.0 58.75 L23.3 58.75" fill="none" stroke="#000000" stroke-linecap="butt" stroke-linejoin="miter" stroke-width="1.0"/>
      <path d="M23.0 71.1 L81.85 71.1" fill="none" stroke="#000000" stroke-linecap="butt" stroke-linejoin="miter" stroke-width="1.0"/>
      <path d="M23.25 71.55 L23.25 62.2" fill="none" stroke="#000000" stroke-linecap="butt" stroke-linejoin="miter" stroke-width="1.0"/>
      <path d="M81.5 71.45 L81.5 62.1" fill="none" stroke="#000000" stroke-linecap="butt" stroke-linejoin="miter" stroke-width="1.0"/>
    </g>
    <g id="text0" transform="matrix(1.0, 0.0, 0.0, 1.0, -0.35, -0.15)">
      <g transform="matrix(1.0, 0.0, 0.0, 1.0, 0.0, 0.0)">
        <use fill="#000000" height="11.6" transform="matrix(0.0117, 0.0, 0.0, 0.0117, 0.0, 11.0)" width="21.35" xlink:href="#font_Arial_20"/>
        <use fill="#000000" height="11.6" transform="matrix(0.0117, 0.0, 0.0, 0.0117, 6.6, 11.0)" width="21.35" xlink:href="#font_Arial_70"/>
      </g>
    </g>
    <g id="font_Arial_20">
      <path d="M515.5 -86.5 L156.0 -86.5 Q171.0 -111.0 194.0 -135.0 217.0 -159.5 298.0 -227.5 395.0 -309.5 437.0 -356.5 478.5 -403.5 496.5 -446.0 514.5 -488.5 514.5 -532.5 514.5 -619.0 453.0 -677.5 391.5 -736.0 286.0 -736.0 181.5 -736.0 119.5 -681.5 57.5 -627.5 48.0 -524.0 L140.5 -514.5 Q141.0 -583.5 180.0 -622.5 219.0 -661.5 284.0 -661.5 345.5 -661.5 384.0 -624.5 422.0 -588.0 422.0 -534.5 422.0 -483.5 380.0 -426.0 338.0 -369.0 218.5 -271.0 141.5 -208.0 101.0 -160.0 60.0 -112.0 41.5 -62.5 30.0 -32.5 31.0 0.0 L515.5 0.0 515.5 -86.5" fill-rule="evenodd" stroke="none"/>
    </g>
    <g id="font_Arial_70">
      <path d="M48.5 -637.0 L407.5 -637.0 Q339.0 -559.0 278.5 -445.0 217.5 -331.5 185.0 -209.0 152.5 -86.5 151.0 0.0 L243.5 0.0 Q251.0 -109.5 278.0 -201.5 315.5 -332.0 384.5 -455.5 453.0 -579.0 523.0 -653.5 L523.0 -723.5 48.5 -723.5 48.5 -637.0" fill-rule="evenodd" stroke="none"/>
    </g>
    <g id="text1" transform="matrix(1.0, 0.0, 0.0, 1.0, -0.35, -0.15)">
      <g transform="matrix(1.0, 0.0, 0.0, 1.0, 0.0, 0.0)">
        <use fill="#000000" height="11.6" transform="matrix(0.0117, 0.0, 0.0, 0.0117, 0.0, 11.0)" width="21.35" xlink:href="#font_Arial_20"/>
        <use fill="#000000" height="11.6" transform="matrix(0.0117, 0.0, 0.0, 0.0117, 6.6, 11.0)" width="21.35" xlink:href="#font_Arial_40"/>
      </g>
    </g>
    <g id="font_Arial_40">
      <path d="M331.0 -258.0 L101.5 -258.0 Q216.5 -423.0 331.0 -588.5 L331.0 -258.0 M331.0 0.0 L421.0 0.0 421.0 -175.5 520.0 -175.5 520.0 -258.0 421.0 -258.0 421.0 -733.0 347.5 -733.0 13.0 -258.0 13.0 -175.5 331.0 -175.5 331.0 0.0" fill-rule="evenodd" stroke="none"/>
    </g>
    <g id="shape1" transform="matrix(1.0, 0.0, 0.0, 1.0, -26.15, -26.45)">
      <path d="M31.25 43.55 Q31.15 41.2 29.35 35.8 27.95 31.5 28.75 30.3 30.75 27.3 33.15 27.0 34.5 26.8 37.5 27.8 39.8 28.55 40.95 40.05 42.15 51.6 40.0 55.05 38.65 57.25 34.5 56.8 30.8 56.4 29.0 54.8 28.1 54.1 27.55 53.05 26.65 51.4 27.25 49.55 27.45 48.9 29.45 46.7 31.3 44.7 31.25 43.55" fill="#ebd79b" fill-rule="evenodd" stroke="none"/>
      <path d="M31.25 43.55 Q31.3 44.7 29.45 46.7 27.45 48.9 27.25 49.55 26.65 51.4 27.55 53.05 28.1 54.1 29.0 54.8 30.8 56.4 34.5 56.8 38.65 57.25 40.0 55.05 42.15 51.6 40.95 40.05 39.8 28.55 37.5 27.8 34.5 26.8 33.15 27.0 30.75 27.3 28.75 30.3 27.95 31.5 29.35 35.8 31.15 41.2 31.25 43.55 Z" fill="none" stroke="#d17e2b" stroke-linecap="butt" stroke-linejoin="miter" stroke-width="1.0"/>
    </g>
  </defs>
</svg>
