<?xml version="1.0" encoding="UTF-8" standalone="no"?>
<svg xmlns:xlink="http://www.w3.org/1999/xlink" height="87.0px" width="98.75px" xmlns="http://www.w3.org/2000/svg">
  <g transform="matrix(1.0, 0.0, 0.0, 1.0, -0.35, 0.85)">
    <use height="72.3" transform="matrix(1.0, 0.0, 0.0, 1.0, 13.4, 2.85)" width="85.7" xlink:href="#shape0"/>
    <use height="11.6" transform="matrix(1.0, 0.0, 0.0, 1.0, 0.35, 25.65)" width="21.35" xlink:href="#text0"/>
    <use height="11.75" transform="matrix(1.0, 0.0, 0.0, 1.0, 54.0, 74.4)" width="21.2" xlink:href="#text1"/>
    <use height="60.55" transform="matrix(1.0, 0.0, 0.0, 1.0, 19.85, -0.85)" width="57.1" xlink:href="#shape1"/>
  </g>
  <defs>
    <g id="shape0" transform="matrix(1.0, 0.0, 0.0, 1.0, -13.4, -2.85)">
      <path d="M88.9 21.0 Q94.6 25.35 95.5 28.4 97.65 36.05 94.9 40.3 L92.2 43.6 Q90.5 45.65 89.75 47.4 88.4 50.65 76.65 50.05 64.1 49.45 61.75 51.65 58.05 55.15 51.75 57.0 44.2 59.15 40.25 55.9 37.2 53.45 36.35 48.3 35.6 43.8 36.75 40.65 L38.1 37.7 Q39.15 35.15 39.25 32.4 L38.7 24.8 Q38.25 19.9 38.75 17.9 39.65 14.35 42.15 12.7 43.6 11.75 47.0 10.15 49.85 8.3 56.85 12.05 65.3 16.55 66.25 16.65 67.8 16.85 73.05 16.7 78.7 16.5 80.75 16.65 83.4 16.85 88.9 21.0" fill="#b0c963" fill-rule="evenodd" stroke="none"/>
      <path d="M88.9 21.0 Q83.4 16.85 80.75 16.65 78.7 16.5 73.05 16.7 67.8 16.85 66.25 16.65 65.3 16.55 56.85 12.05 49.85 8.3 47.0 10.15 43.6 11.75 42.15 12.7 39.65 14.35 38.75 17.9 38.25 19.9 38.7 24.8 L39.25 32.4 Q39.15 35.15 38.1 37.7 L36.75 40.65 Q35.6 43.8 36.35 48.3 37.2 53.45 40.25 55.9 44.2 59.15 51.75 57.0 58.05 55.15 61.75 51.65 64.1 49.45 76.65 50.05 88.4 50.65 89.75 47.4 90.5 45.65 92.2 43.6 L94.9 40.3 Q97.65 36.05 95.5 28.4 94.6 25.35 88.9 21.0 Z" fill="none" stroke="#78ab44" stroke-linecap="butt" stroke-linejoin="miter" stroke-width="1.0"/>
      <path d="M14.3 3.35 L14.3 62.15" fill="none" stroke="#000000" stroke-linecap="butt" stroke-linejoin="miter" stroke-width="1.0"/>
      <path d="M13.9 3.6 L23.25 3.6" fill="none" stroke="#000000" stroke-linecap="butt" stroke-linejoin="miter" stroke-width="1.0"/>
      <path d="M14.0 61.85 L23.3 61.85" fill="none" stroke="#000000" stroke-linecap="butt" stroke-linejoin="miter" stroke-width="1.0"/>
      <path d="M23.0 74.2 L98.6 74.2" fill="none" stroke="#000000" stroke-linecap="butt" stroke-linejoin="miter" stroke-width="1.0"/>
      <path d="M23.35 74.65 L23.35 65.3" fill="none" stroke="#000000" stroke-linecap="butt" stroke-linejoin="miter" stroke-width="1.0"/>
      <path d="M98.15 74.55 L98.15 65.2" fill="none" stroke="#000000" stroke-linecap="butt" stroke-linejoin="miter" stroke-width="1.0"/>
    </g>
    <g id="text0" transform="matrix(1.0, 0.0, 0.0, 1.0, -0.35, -0.15)">
      <g transform="matrix(1.0, 0.0, 0.0, 1.0, 0.0, 0.0)">
        <use fill="#000000" height="11.6" transform="matrix(0.0117, 0.0, 0.0, 0.0117, 0.0, 11.0)" width="21.35" xlink:href="#font_Arial_20"/>
        <use fill="#000000" height="11.6" transform="matrix(0.0117, 0.0, 0.0, 0.0117, 6.6, 11.0)" width="21.35" xlink:href="#font_Arial_70"/>
      </g>
    </g>
    <g id="font_Arial_20">
      <path d="M515.5 -86.5 L156.0 -86.5 Q171.0 -111.0 194.0 -135.0 217.0 -159.5 298.0 -227.5 395.0 -309.5 437.0 -356.5 478.5 -403.5 496.5 -446.0 514.5 -488.5 514.5 -532.5 514.5 -619.0 453.0 -677.5 391.5 -736.0 286.0 -736.0 181.5 -736.0 119.5 -681.5 57.5 -627.5 48.0 -524.0 L140.5 -514.5 Q141.0 -583.5 180.0 -622.5 219.0 -661.5 284.0 -661.5 345.5 -661.5 384.0 -624.5 422.0 -588.0 422.0 -534.5 422.0 -483.5 380.0 -426.0 338.0 -369.0 218.5 -271.0 141.5 -208.0 101.0 -160.0 60.0 -112.0 41.5 -62.5 30.0 -32.5 31.0 0.0 L515.5 0.0 515.5 -86.5" fill-rule="evenodd" stroke="none"/>
    </g>
    <g id="font_Arial_70">
      <path d="M48.5 -637.0 L407.5 -637.0 Q339.0 -559.0 278.5 -445.0 217.5 -331.5 185.0 -209.0 152.5 -86.5 151.0 0.0 L243.5 0.0 Q251.0 -109.5 278.0 -201.5 315.5 -332.0 384.5 -455.5 453.0 -579.0 523.0 -653.5 L523.0 -723.5 48.5 -723.5 48.5 -637.0" fill-rule="evenodd" stroke="none"/>
    </g>
    <g id="text1" transform="matrix(1.0, 0.0, 0.0, 1.0, -0.5, -0.15)">
      <g transform="matrix(1.0, 0.0, 0.0, 1.0, 0.0, 0.0)">
        <use fill="#000000" height="11.75" transform="matrix(0.0117, 0.0, 0.0, 0.0117, 0.0, 11.0)" width="21.2" xlink:href="#font_Arial_30"/>
        <use fill="#000000" height="11.75" transform="matrix(0.0117, 0.0, 0.0, 0.0117, 6.6, 11.0)" width="21.2" xlink:href="#font_Arial_90"/>
      </g>
    </g>
    <g id="font_Arial_30">
      <path d="M43.0 -193.5 Q52.0 -102.0 116.0 -44.5 179.5 13.0 276.0 13.0 383.0 13.0 453.0 -53.5 523.0 -120.5 523.0 -216.5 523.0 -287.5 487.0 -334.5 451.0 -382.0 386.0 -397.0 436.0 -420.0 461.5 -459.0 487.0 -498.0 487.0 -545.5 487.0 -595.5 460.5 -640.0 433.5 -684.5 383.0 -710.0 332.5 -736.0 272.5 -736.0 185.5 -736.0 127.0 -686.0 68.5 -636.5 52.0 -546.0 L142.0 -530.0 Q152.0 -596.0 187.0 -629.0 222.0 -662.0 274.5 -662.0 327.5 -662.0 361.0 -629.5 394.5 -597.0 394.5 -547.5 394.5 -485.0 348.5 -455.0 302.5 -425.0 245.0 -425.0 L230.5 -426.0 220.5 -347.0 Q258.5 -357.0 284.0 -357.0 346.5 -357.0 387.0 -316.5 427.5 -276.5 427.5 -214.5 427.5 -149.5 384.0 -105.5 340.0 -61.5 276.5 -61.5 223.0 -61.5 186.0 -95.0 148.5 -129.0 133.0 -205.5 L43.0 -193.5" fill-rule="evenodd" stroke="none"/>
    </g>
    <g id="font_Arial_90">
      <path d="M424.5 -493.0 Q424.5 -415.5 384.5 -371.5 344.0 -328.0 281.5 -328.0 219.5 -328.0 177.5 -371.5 135.0 -415.5 135.0 -485.5 135.0 -563.5 179.5 -612.5 224.0 -661.5 284.0 -661.5 342.0 -661.5 383.5 -616.0 424.5 -570.5 424.5 -493.0 M56.0 -169.5 Q67.0 -83.0 121.5 -35.0 176.0 12.5 262.0 12.5 343.0 12.5 403.5 -31.0 463.5 -74.5 494.0 -157.5 524.5 -241.0 524.5 -381.5 524.5 -516.5 494.0 -587.5 463.0 -659.0 404.0 -697.5 344.5 -736.0 273.0 -736.0 174.0 -736.0 108.5 -668.0 42.5 -600.0 42.5 -488.5 42.5 -380.5 105.5 -314.5 168.5 -248.5 259.5 -248.5 314.0 -248.5 361.0 -275.0 407.5 -302.0 434.5 -345.0 L435.0 -327.0 Q435.0 -271.0 421.5 -217.0 408.0 -163.0 388.0 -131.0 368.0 -99.5 337.0 -80.5 305.5 -61.5 264.0 -61.5 215.5 -61.5 184.5 -89.0 153.5 -116.5 142.5 -177.5 L56.0 -169.5" fill-rule="evenodd" stroke="none"/>
    </g>
    <g id="shape1" transform="matrix(1.0, 0.0, 0.0, 1.0, -19.85, 0.85)">
      <path d="M64.25 4.9 L70.15 4.95 Q73.85 5.1 75.25 6.15 77.1 7.55 76.15 10.2 75.2 13.0 72.0 13.4 70.65 13.6 68.95 12.45 66.35 10.75 65.5 10.4 L61.1 9.55 57.75 9.15 Q54.85 8.3 53.15 6.0 51.1 3.25 53.75 0.9 55.0 -0.2 58.65 2.05 63.0 4.8 64.25 4.9" fill="#ebd79b" fill-rule="evenodd" stroke="none"/>
      <path d="M64.25 4.9 Q63.0 4.8 58.65 2.05 55.0 -0.2 53.75 0.9 51.1 3.25 53.15 6.0 54.85 8.3 57.75 9.15 L61.1 9.55 65.5 10.4 Q66.35 10.75 68.95 12.45 70.65 13.6 72.0 13.4 75.2 13.0 76.15 10.2 77.1 7.55 75.25 6.15 73.85 5.1 70.15 4.95 L64.25 4.9 Z" fill="none" stroke="#d17e2b" stroke-linecap="butt" stroke-linejoin="miter" stroke-width="1.0"/>
      <path d="M22.4 23.05 Q23.9 22.4 24.0 21.15 24.15 17.95 25.75 16.95 26.7 16.35 29.0 15.9 30.0 15.55 30.75 17.05 31.75 19.0 34.0 19.65 36.7 20.45 36.2 22.3 L33.75 27.9 32.55 29.75 Q31.45 31.95 31.0 35.4 30.8 37.1 31.95 38.95 33.15 40.9 33.0 42.9 32.55 48.3 31.0 52.15 30.75 52.75 30.2 56.3 29.9 58.05 28.0 58.65 25.55 59.4 23.75 58.15 21.95 56.9 21.25 53.9 20.8 52.2 22.05 49.4 23.6 46.05 23.75 44.4 24.0 41.35 23.1 37.9 L22.0 34.65 Q21.9 34.45 22.15 33.35 22.4 32.15 22.25 31.4 L21.0 27.9 Q20.25 25.85 20.5 24.9 20.75 23.8 22.4 23.05" fill="#ebd79b" fill-rule="evenodd" stroke="none"/>
      <path d="M22.4 23.05 Q20.75 23.8 20.5 24.9 20.25 25.85 21.0 27.9 L22.25 31.4 Q22.4 32.15 22.15 33.35 21.9 34.45 22.0 34.65 L23.1 37.9 Q24.0 41.35 23.75 44.4 23.6 46.05 22.05 49.4 20.8 52.2 21.25 53.9 21.95 56.9 23.75 58.15 25.55 59.4 28.0 58.65 29.9 58.05 30.2 56.3 30.75 52.75 31.0 52.15 32.55 48.3 33.0 42.9 33.15 40.9 31.95 38.95 30.8 37.1 31.0 35.4 31.45 31.95 32.55 29.75 L33.75 27.9 36.2 22.3 Q36.7 20.45 34.0 19.65 31.75 19.0 30.75 17.05 30.0 15.55 29.0 15.9 26.7 16.35 25.75 16.95 24.15 17.95 24.0 21.15 23.9 22.4 22.4 23.05 Z" fill="none" stroke="#d17e2b" stroke-linecap="butt" stroke-linejoin="miter" stroke-width="1.0"/>
    </g>
  </defs>
</svg>
