<?xml version="1.0" encoding="UTF-8" standalone="no"?>
<svg xmlns:xlink="http://www.w3.org/1999/xlink" height="90.2px" width="82.0px" xmlns="http://www.w3.org/2000/svg">
  <g transform="matrix(1.0, 0.0, 0.0, 1.0, -0.35, 0.35)">
    <use height="72.3" transform="matrix(1.0, 0.0, 0.0, 1.0, 13.4, 6.55)" width="68.95" xlink:href="#shape0"/>
    <use height="11.75" transform="matrix(1.0, 0.0, 0.0, 1.0, 0.35, 29.35)" width="21.35" xlink:href="#text0"/>
    <use height="11.75" transform="matrix(1.0, 0.0, 0.0, 1.0, 46.8, 78.1)" width="20.4" xlink:href="#text1"/>
    <use height="63.9" transform="matrix(1.0, 0.0, 0.0, 1.0, 19.6, -0.35)" width="45.25" xlink:href="#shape1"/>
  </g>
  <defs>
    <g id="shape0" transform="matrix(1.0, 0.0, 0.0, 1.0, -13.4, -6.55)">
      <path d="M43.35 8.95 L52.5 9.35 Q55.9 9.6 60.8 11.9 66.7 14.65 67.0 17.6 67.25 20.6 62.15 25.15 56.1 30.45 55.0 33.1 53.9 35.7 55.9 47.5 57.75 58.25 55.0 60.85 51.95 63.75 46.35 63.55 40.5 63.4 36.25 59.85 33.3 57.45 33.35 50.85 33.35 45.65 34.75 41.85 37.7 33.3 36.75 26.6 36.45 24.65 33.95 19.1 32.4 15.65 34.0 12.6 35.75 9.3 43.35 8.95" fill="#b0c963" fill-rule="evenodd" stroke="none"/>
      <path d="M43.35 8.95 Q35.75 9.3 34.0 12.6 32.4 15.65 33.95 19.1 36.45 24.65 36.75 26.6 37.7 33.3 34.75 41.85 33.35 45.65 33.35 50.85 33.3 57.45 36.25 59.85 40.5 63.4 46.35 63.55 51.95 63.75 55.0 60.85 57.75 58.25 55.9 47.5 53.9 35.7 55.0 33.1 56.1 30.45 62.15 25.15 67.25 20.6 67.0 17.6 66.7 14.65 60.8 11.9 55.9 9.6 52.5 9.35 L43.35 8.95 Z" fill="none" stroke="#78ab44" stroke-linecap="butt" stroke-linejoin="miter" stroke-width="1.0"/>
      <path d="M14.3 7.05 L14.3 65.85" fill="none" stroke="#000000" stroke-linecap="butt" stroke-linejoin="miter" stroke-width="1.0"/>
      <path d="M13.9 7.3 L23.25 7.3" fill="none" stroke="#000000" stroke-linecap="butt" stroke-linejoin="miter" stroke-width="1.0"/>
      <path d="M14.0 65.55 L23.3 65.55" fill="none" stroke="#000000" stroke-linecap="butt" stroke-linejoin="miter" stroke-width="1.0"/>
      <path d="M23.0 77.9 L81.85 77.9" fill="none" stroke="#000000" stroke-linecap="butt" stroke-linejoin="miter" stroke-width="1.0"/>
      <path d="M23.25 78.35 L23.25 69.0" fill="none" stroke="#000000" stroke-linecap="butt" stroke-linejoin="miter" stroke-width="1.0"/>
      <path d="M81.5 78.25 L81.5 68.9" fill="none" stroke="#000000" stroke-linecap="butt" stroke-linejoin="miter" stroke-width="1.0"/>
    </g>
    <g id="text0" transform="matrix(1.0, 0.0, 0.0, 1.0, -0.35, -0.15)">
      <g transform="matrix(1.0, 0.0, 0.0, 1.0, 0.0, 0.0)">
        <use fill="#000000" height="11.75" transform="matrix(0.0117, 0.0, 0.0, 0.0117, 0.0, 11.0)" width="21.35" xlink:href="#font_Arial_20"/>
        <use fill="#000000" height="11.75" transform="matrix(0.0117, 0.0, 0.0, 0.0117, 6.6, 11.0)" width="21.35" xlink:href="#font_Arial_30"/>
      </g>
    </g>
    <g id="font_Arial_20">
      <path d="M515.5 -86.5 L156.0 -86.5 Q171.0 -111.0 194.0 -135.0 217.0 -159.5 298.0 -227.5 395.0 -309.5 437.0 -356.5 478.5 -403.5 496.5 -446.0 514.5 -488.5 514.5 -532.5 514.5 -619.0 453.0 -677.5 391.5 -736.0 286.0 -736.0 181.5 -736.0 119.5 -681.5 57.5 -627.5 48.0 -524.0 L140.5 -514.5 Q141.0 -583.5 180.0 -622.5 219.0 -661.5 284.0 -661.5 345.5 -661.5 384.0 -624.5 422.0 -588.0 422.0 -534.5 422.0 -483.5 380.0 -426.0 338.0 -369.0 218.5 -271.0 141.5 -208.0 101.0 -160.0 60.0 -112.0 41.5 -62.5 30.0 -32.5 31.0 0.0 L515.5 0.0 515.5 -86.5" fill-rule="evenodd" stroke="none"/>
    </g>
    <g id="font_Arial_30">
      <path d="M43.0 -193.5 Q52.0 -102.0 116.0 -44.5 179.5 13.0 276.0 13.0 383.0 13.0 453.0 -53.5 523.0 -120.5 523.0 -216.5 523.0 -287.5 487.0 -334.5 451.0 -382.0 386.0 -397.0 436.0 -420.0 461.5 -459.0 487.0 -498.0 487.0 -545.5 487.0 -595.5 460.5 -640.0 433.5 -684.5 383.0 -710.0 332.5 -736.0 272.5 -736.0 185.5 -736.0 127.0 -686.0 68.5 -636.5 52.0 -546.0 L142.0 -530.0 Q152.0 -596.0 187.0 -629.0 222.0 -662.0 274.5 -662.0 327.5 -662.0 361.0 -629.5 394.5 -597.0 394.5 -547.5 394.5 -485.0 348.5 -455.0 302.5 -425.0 245.0 -425.0 L230.5 -426.0 220.5 -347.0 Q258.5 -357.0 284.0 -357.0 346.5 -357.0 387.0 -316.5 427.5 -276.5 427.5 -214.5 427.5 -149.5 384.0 -105.5 340.0 -61.5 276.5 -61.5 223.0 -61.5 186.0 -95.0 148.5 -129.0 133.0 -205.5 L43.0 -193.5" fill-rule="evenodd" stroke="none"/>
    </g>
    <g id="text1" transform="matrix(1.0, 0.0, 0.0, 1.0, -1.3, -0.15)">
      <g transform="matrix(1.0, 0.0, 0.0, 1.0, 0.0, 0.0)">
        <use fill="#000000" height="11.75" transform="matrix(0.0117, 0.0, 0.0, 0.0117, 0.0, 11.0)" width="20.4" xlink:href="#font_Arial_10"/>
        <use fill="#000000" height="11.75" transform="matrix(0.0117, 0.0, 0.0, 0.0117, 6.6, 11.0)" width="20.4" xlink:href="#font_Arial_80"/>
      </g>
    </g>
    <g id="font_Arial_10">
      <path d="M381.5 0.0 L381.5 -736.0 323.5 -736.0 Q300.0 -688.5 243.5 -638.0 187.0 -587.5 111.5 -552.0 L111.5 -465.0 Q153.5 -480.5 206.5 -511.5 259.0 -542.5 291.5 -573.5 L291.5 0.0 381.5 0.0" fill-rule="evenodd" stroke="none"/>
    </g>
    <g id="font_Arial_80">
      <path d="M134.0 -211.5 Q134.0 -274.5 176.0 -316.5 217.5 -358.5 281.0 -358.5 346.0 -358.5 389.5 -316.0 432.5 -273.5 432.5 -208.5 432.5 -144.5 390.5 -103.0 348.5 -61.5 284.0 -61.5 242.5 -61.5 206.5 -81.0 170.5 -101.0 152.5 -137.0 134.0 -173.0 134.0 -211.5 M163.0 -550.0 Q163.0 -596.0 197.0 -629.0 231.0 -662.0 282.5 -662.0 333.5 -662.0 368.0 -628.0 402.0 -594.5 402.0 -545.0 402.0 -497.5 369.0 -464.5 335.5 -432.0 283.5 -432.0 230.0 -432.0 196.5 -465.0 163.0 -498.0 163.0 -550.0 M181.0 -397.5 Q114.0 -380.0 78.0 -331.5 41.5 -283.5 41.5 -212.0 41.5 -116.0 108.0 -51.5 174.5 12.5 283.0 12.5 391.5 12.5 458.0 -51.5 524.5 -115.5 524.5 -209.5 524.5 -277.5 489.5 -326.5 454.0 -375.5 386.5 -397.5 441.0 -418.0 468.0 -455.5 494.5 -493.5 494.5 -544.5 494.5 -624.5 436.0 -680.0 377.5 -736.0 281.5 -736.0 186.0 -736.0 128.5 -681.5 71.0 -627.0 71.0 -547.0 71.0 -494.0 98.0 -456.0 125.0 -418.0 181.0 -397.5" fill-rule="evenodd" stroke="none"/>
    </g>
    <g id="shape1" transform="matrix(1.0, 0.0, 0.0, 1.0, -19.6, 0.35)">
      <path d="M31.75 27.1 Q33.4 26.55 33.9 30.6 34.45 34.8 32.0 37.35 L30.8 39.55 28.75 43.35 Q28.2 44.2 28.75 48.5 29.4 53.75 29.25 55.6 29.0 58.7 27.3 60.25 25.75 61.7 23.25 61.6 20.95 61.55 20.35 52.2 19.9 46.0 20.25 39.1 20.4 35.95 21.9 35.25 22.75 34.85 25.0 34.6 25.9 34.3 27.65 31.15 29.4 27.95 31.75 27.1" fill="#ebd79b" fill-rule="evenodd" stroke="none"/>
      <path d="M31.75 27.1 Q29.4 27.95 27.65 31.15 25.9 34.3 25.0 34.6 22.75 34.85 21.9 35.25 20.4 35.95 20.25 39.1 19.9 46.0 20.35 52.2 20.95 61.55 23.25 61.6 25.75 61.7 27.3 60.25 29.0 58.7 29.25 55.6 29.4 53.75 28.75 48.5 28.2 44.2 28.75 43.35 L30.8 39.55 32.0 37.35 Q34.45 34.8 33.9 30.6 33.4 26.55 31.75 27.1 Z" fill="none" stroke="#d17e2b" stroke-linecap="butt" stroke-linejoin="miter" stroke-width="1.0"/>
      <path d="M48.55 0.55 Q53.65 0.35 61.75 0.6 65.05 0.6 63.4 3.4 62.0 5.7 59.75 7.1 58.5 7.9 57.3 6.9 55.9 5.5 55.0 4.85 54.5 4.5 46.05 4.8 38.45 5.1 38.75 3.1 39.05 0.9 48.55 0.55" fill="#ebd79b" fill-rule="evenodd" stroke="none"/>
      <path d="M48.55 0.55 Q39.05 0.9 38.75 3.1 38.45 5.1 46.05 4.8 54.5 4.5 55.0 4.85 55.9 5.5 57.3 6.9 58.5 7.9 59.75 7.1 62.0 5.7 63.4 3.4 65.05 0.6 61.75 0.6 53.65 0.35 48.55 0.55 Z" fill="none" stroke="#d17e2b" stroke-linecap="butt" stroke-linejoin="miter" stroke-width="1.0"/>
    </g>
  </defs>
</svg>
