<?xml version="1.0" encoding="UTF-8" standalone="no"?>
<svg xmlns:xlink="http://www.w3.org/1999/xlink" height="83.3px" width="82.0px" xmlns="http://www.w3.org/2000/svg">
  <g transform="matrix(1.0, 0.0, 0.0, 1.0, -0.35, 0.25)">
    <use height="72.3" transform="matrix(1.0, 0.0, 0.0, 1.0, 13.4, -0.25)" width="68.95" xlink:href="#shape0"/>
    <use height="11.6" transform="matrix(1.0, 0.0, 0.0, 1.0, 0.35, 22.55)" width="21.35" xlink:href="#text0"/>
    <use height="11.75" transform="matrix(1.0, 0.0, 0.0, 1.0, 46.8, 71.3)" width="20.4" xlink:href="#text1"/>
    <use height="35.8" transform="matrix(1.0, 0.0, 0.0, 1.0, 50.2, 25.2)" width="22.2" xlink:href="#shape1"/>
  </g>
  <defs>
    <g id="shape0" transform="matrix(1.0, 0.0, 0.0, 1.0, -13.4, 0.25)">
      <path d="M43.55 7.0 Q46.4 3.5 49.0 3.3 54.15 2.95 58.55 5.25 62.8 7.5 63.75 10.8 65.85 18.2 59.15 23.7 L53.7 27.7 Q50.8 29.95 50.0 31.8 49.15 33.8 47.9 44.2 46.85 52.85 44.0 55.55 41.25 58.2 36.0 56.75 31.2 55.45 26.5 51.55 23.35 49.0 21.7 42.7 20.2 36.75 21.25 33.8 23.1 28.55 29.85 21.65 L39.75 12.05 43.55 7.0" fill="#b0c963" fill-rule="evenodd" stroke="none"/>
      <path d="M43.55 7.0 L39.75 12.05 29.85 21.65 Q23.1 28.55 21.25 33.8 20.2 36.75 21.7 42.7 23.35 49.0 26.5 51.55 31.2 55.45 36.0 56.75 41.25 58.2 44.0 55.55 46.85 52.85 47.9 44.2 49.15 33.8 50.0 31.8 50.8 29.95 53.7 27.7 L59.15 23.7 Q65.85 18.2 63.75 10.8 62.8 7.5 58.55 5.25 54.15 2.95 49.0 3.3 46.4 3.5 43.55 7.0 Z" fill="none" stroke="#78ab44" stroke-linecap="butt" stroke-linejoin="miter" stroke-width="1.0"/>
      <path d="M14.3 0.25 L14.3 59.05" fill="none" stroke="#000000" stroke-linecap="butt" stroke-linejoin="miter" stroke-width="1.0"/>
      <path d="M13.9 0.5 L23.25 0.5" fill="none" stroke="#000000" stroke-linecap="butt" stroke-linejoin="miter" stroke-width="1.0"/>
      <path d="M14.0 58.75 L23.3 58.75" fill="none" stroke="#000000" stroke-linecap="butt" stroke-linejoin="miter" stroke-width="1.0"/>
      <path d="M23.0 71.1 L81.85 71.1" fill="none" stroke="#000000" stroke-linecap="butt" stroke-linejoin="miter" stroke-width="1.0"/>
      <path d="M23.25 71.55 L23.25 62.2" fill="none" stroke="#000000" stroke-linecap="butt" stroke-linejoin="miter" stroke-width="1.0"/>
      <path d="M81.5 71.45 L81.5 62.1" fill="none" stroke="#000000" stroke-linecap="butt" stroke-linejoin="miter" stroke-width="1.0"/>
    </g>
    <g id="text0" transform="matrix(1.0, 0.0, 0.0, 1.0, -0.35, -0.15)">
      <g transform="matrix(1.0, 0.0, 0.0, 1.0, 0.0, 0.0)">
        <use fill="#000000" height="11.6" transform="matrix(0.0117, 0.0, 0.0, 0.0117, 0.0, 11.0)" width="21.35" xlink:href="#font_Arial_20"/>
        <use fill="#000000" height="11.6" transform="matrix(0.0117, 0.0, 0.0, 0.0117, 6.6, 11.0)" width="21.35" xlink:href="#font_Arial_70"/>
      </g>
    </g>
    <g id="font_Arial_20">
      <path d="M515.5 -86.5 L156.0 -86.5 Q171.0 -111.0 194.0 -135.0 217.0 -159.5 298.0 -227.5 395.0 -309.5 437.0 -356.5 478.5 -403.5 496.5 -446.0 514.5 -488.5 514.5 -532.5 514.5 -619.0 453.0 -677.5 391.5 -736.0 286.0 -736.0 181.5 -736.0 119.5 -681.5 57.5 -627.5 48.0 -524.0 L140.5 -514.5 Q141.0 -583.5 180.0 -622.5 219.0 -661.5 284.0 -661.5 345.5 -661.5 384.0 -624.5 422.0 -588.0 422.0 -534.5 422.0 -483.5 380.0 -426.0 338.0 -369.0 218.5 -271.0 141.5 -208.0 101.0 -160.0 60.0 -112.0 41.5 -62.5 30.0 -32.5 31.0 0.0 L515.5 0.0 515.5 -86.5" fill-rule="evenodd" stroke="none"/>
    </g>
    <g id="font_Arial_70">
      <path d="M48.5 -637.0 L407.5 -637.0 Q339.0 -559.0 278.5 -445.0 217.5 -331.5 185.0 -209.0 152.5 -86.5 151.0 0.0 L243.5 0.0 Q251.0 -109.5 278.0 -201.5 315.5 -332.0 384.5 -455.5 453.0 -579.0 523.0 -653.5 L523.0 -723.5 48.5 -723.5 48.5 -637.0" fill-rule="evenodd" stroke="none"/>
    </g>
    <g id="text1" transform="matrix(1.0, 0.0, 0.0, 1.0, -1.3, -0.15)">
      <g transform="matrix(1.0, 0.0, 0.0, 1.0, 0.0, 0.0)">
        <use fill="#000000" height="11.75" transform="matrix(0.0117, 0.0, 0.0, 0.0117, 0.0, 11.0)" width="20.4" xlink:href="#font_Arial_10"/>
        <use fill="#000000" height="11.75" transform="matrix(0.0117, 0.0, 0.0, 0.0117, 6.6, 11.0)" width="20.4" xlink:href="#font_Arial_80"/>
      </g>
    </g>
    <g id="font_Arial_10">
      <path d="M381.5 0.0 L381.5 -736.0 323.5 -736.0 Q300.0 -688.5 243.5 -638.0 187.0 -587.5 111.5 -552.0 L111.5 -465.0 Q153.5 -480.5 206.5 -511.5 259.0 -542.5 291.5 -573.5 L291.5 0.0 381.5 0.0" fill-rule="evenodd" stroke="none"/>
    </g>
    <g id="font_Arial_80">
      <path d="M134.0 -211.5 Q134.0 -274.5 176.0 -316.5 217.5 -358.5 281.0 -358.5 346.0 -358.5 389.5 -316.0 432.5 -273.5 432.5 -208.5 432.5 -144.5 390.5 -103.0 348.5 -61.5 284.0 -61.5 242.5 -61.5 206.5 -81.0 170.5 -101.0 152.5 -137.0 134.0 -173.0 134.0 -211.5 M163.0 -550.0 Q163.0 -596.0 197.0 -629.0 231.0 -662.0 282.5 -662.0 333.5 -662.0 368.0 -628.0 402.0 -594.5 402.0 -545.0 402.0 -497.5 369.0 -464.5 335.5 -432.0 283.5 -432.0 230.0 -432.0 196.5 -465.0 163.0 -498.0 163.0 -550.0 M181.0 -397.5 Q114.0 -380.0 78.0 -331.5 41.5 -283.5 41.5 -212.0 41.5 -116.0 108.0 -51.5 174.5 12.5 283.0 12.5 391.5 12.5 458.0 -51.5 524.5 -115.5 524.5 -209.5 524.5 -277.5 489.5 -326.5 454.0 -375.5 386.5 -397.5 441.0 -418.0 468.0 -455.5 494.5 -493.5 494.5 -544.5 494.5 -624.5 436.0 -680.0 377.5 -736.0 281.5 -736.0 186.0 -736.0 128.5 -681.5 71.0 -627.0 71.0 -547.0 71.0 -494.0 98.0 -456.0 125.0 -418.0 181.0 -397.5" fill-rule="evenodd" stroke="none"/>
    </g>
    <g id="shape1" transform="matrix(1.0, 0.0, 0.0, 1.0, -50.2, -25.2)">
      <path d="M53.5 43.3 Q54.3 40.85 57.25 36.2 59.65 32.35 59.75 30.3 59.8 27.15 61.3 26.45 62.2 26.05 64.5 25.8 L69.55 26.0 Q72.55 27.3 69.75 31.05 69.4 31.5 71.15 37.4 72.8 43.15 70.75 45.3 70.5 45.6 68.05 45.9 65.55 46.25 64.25 47.55 63.8 48.0 63.75 51.9 63.65 55.8 62.25 57.3 60.15 59.55 57.25 60.2 54.6 60.8 52.25 59.8 48.6 58.3 53.5 43.3" fill="#ebd79b" fill-rule="evenodd" stroke="none"/>
      <path d="M53.5 43.3 Q48.6 58.3 52.25 59.8 54.6 60.8 57.25 60.2 60.15 59.55 62.25 57.3 63.65 55.8 63.75 51.9 63.8 48.0 64.25 47.55 65.55 46.25 68.05 45.9 70.5 45.6 70.75 45.3 72.8 43.15 71.15 37.4 69.4 31.5 69.75 31.05 72.55 27.3 69.55 26.0 L64.5 25.8 Q62.2 26.05 61.3 26.45 59.8 27.15 59.75 30.3 59.65 32.35 57.25 36.2 54.3 40.85 53.5 43.3 Z" fill="none" stroke="#d17e2b" stroke-linecap="butt" stroke-linejoin="miter" stroke-width="1.0"/>
    </g>
  </defs>
</svg>
