<?xml version="1.0" encoding="UTF-8" standalone="no"?>
<svg xmlns:xlink="http://www.w3.org/1999/xlink" height="88.8px" width="81.85px" xmlns="http://www.w3.org/2000/svg">
  <g transform="matrix(1.0, 0.0, 0.0, 1.0, -0.5, 0.3)">
    <use height="77.8" transform="matrix(1.0, 0.0, 0.0, 1.0, 12.5, -0.3)" width="69.85" xlink:href="#shape0"/>
    <use height="11.75" transform="matrix(1.0, 0.0, 0.0, 1.0, 0.5, 25.0)" width="21.2" xlink:href="#text0"/>
    <use height="11.75" transform="matrix(1.0, 0.0, 0.0, 1.0, 49.85, 76.75)" width="21.35" xlink:href="#text1"/>
    <use height="30.9" transform="matrix(1.0, 0.0, 0.0, 1.0, 19.6, 32.0)" width="20.7" xlink:href="#shape1"/>
  </g>
  <defs>
    <g id="shape0" transform="matrix(1.0, 0.0, 0.0, 1.0, -12.5, 0.3)">
      <path d="M69.1 16.8 Q65.6 21.15 65.25 22.0 64.45 24.0 67.2 29.35 70.1 34.9 69.75 36.25 69.35 37.8 65.0 40.35 60.55 43.0 60.25 43.75 59.4 45.75 59.85 49.4 L61.1 56.1 Q62.65 64.55 59.0 66.5 53.45 69.5 47.75 69.35 41.4 69.15 41.25 64.5 41.2 62.85 42.35 57.6 43.6 51.85 43.75 49.0 43.85 45.75 42.55 42.4 41.45 39.5 41.75 38.75 43.3 34.35 36.7 26.3 33.35 22.25 32.45 20.55 30.85 17.6 32.0 15.5 34.85 10.4 41.3 6.55 48.45 2.3 56.75 1.75 64.45 1.25 67.8 4.5 69.6 6.2 71.0 11.0 71.7 13.55 69.1 16.8" fill="#b0c963" fill-rule="evenodd" stroke="none"/>
      <path d="M69.1 16.8 Q71.7 13.55 71.0 11.0 69.6 6.2 67.8 4.5 64.45 1.25 56.75 1.75 48.45 2.3 41.3 6.55 34.85 10.4 32.0 15.5 30.85 17.6 32.45 20.55 33.35 22.25 36.7 26.3 43.3 34.35 41.75 38.75 41.45 39.5 42.55 42.4 43.85 45.75 43.75 49.0 43.6 51.85 42.35 57.6 41.2 62.85 41.25 64.5 41.4 69.15 47.75 69.35 53.45 69.5 59.0 66.5 62.65 64.55 61.1 56.1 L59.85 49.4 Q59.4 45.75 60.25 43.75 60.55 43.0 65.0 40.35 69.35 37.8 69.75 36.25 70.1 34.9 67.2 29.35 64.45 24.0 65.25 22.0 65.6 21.15 69.1 16.8 Z" fill="none" stroke="#78ab44" stroke-linecap="butt" stroke-linejoin="miter" stroke-width="1.0"/>
      <path d="M13.5 0.2 L13.5 70.25" fill="none" stroke="#000000" stroke-linecap="butt" stroke-linejoin="miter" stroke-width="1.0"/>
      <path d="M13.0 0.5 L24.1 0.5" fill="none" stroke="#000000" stroke-linecap="butt" stroke-linejoin="miter" stroke-width="1.0"/>
      <path d="M13.1 69.9 L24.2 69.9" fill="none" stroke="#000000" stroke-linecap="butt" stroke-linejoin="miter" stroke-width="1.0"/>
      <path d="M30.0 76.55 L81.85 76.55" fill="none" stroke="#000000" stroke-linecap="butt" stroke-linejoin="miter" stroke-width="1.0"/>
      <path d="M30.25 77.0 L30.25 67.65" fill="none" stroke="#000000" stroke-linecap="butt" stroke-linejoin="miter" stroke-width="1.0"/>
      <path d="M81.55 76.9 L81.55 67.55" fill="none" stroke="#000000" stroke-linecap="butt" stroke-linejoin="miter" stroke-width="1.0"/>
    </g>
    <g id="text0" transform="matrix(1.0, 0.0, 0.0, 1.0, -0.5, -0.15)">
      <g transform="matrix(1.0, 0.0, 0.0, 1.0, 0.0, 0.0)">
        <use fill="#000000" height="11.75" transform="matrix(0.0117, 0.0, 0.0, 0.0117, 0.0, 11.0)" width="21.2" xlink:href="#font_Arial_50"/>
        <use fill="#000000" height="11.75" transform="matrix(0.0117, 0.0, 0.0, 0.0117, 6.6, 11.0)" width="21.2" xlink:href="#font_Arial_10"/>
      </g>
    </g>
    <g id="font_Arial_50">
      <path d="M42.5 -192.0 Q51.5 -99.5 115.0 -43.5 178.0 12.5 278.0 12.5 400.0 12.5 470.5 -76.5 528.5 -149.0 528.5 -248.5 528.5 -353.0 462.5 -419.5 396.5 -486.0 300.5 -486.0 228.0 -486.0 162.0 -440.0 182.0 -538.5 201.5 -637.0 L494.0 -637.0 494.0 -723.0 129.5 -723.0 58.5 -346.5 143.0 -335.5 Q163.0 -367.0 198.0 -386.5 233.0 -406.5 276.5 -406.5 346.5 -406.5 390.0 -362.0 433.0 -317.5 433.0 -240.5 433.0 -159.5 388.0 -110.5 343.0 -61.5 278.0 -61.5 224.0 -61.5 186.0 -96.0 147.5 -131.0 137.0 -200.0 L42.5 -192.0" fill-rule="evenodd" stroke="none"/>
    </g>
    <g id="font_Arial_10">
      <path d="M381.5 0.0 L381.5 -736.0 323.5 -736.0 Q300.0 -688.5 243.5 -638.0 187.0 -587.5 111.5 -552.0 L111.5 -465.0 Q153.5 -480.5 206.5 -511.5 259.0 -542.5 291.5 -573.5 L291.5 0.0 381.5 0.0" fill-rule="evenodd" stroke="none"/>
    </g>
    <g id="text1" transform="matrix(1.0, 0.0, 0.0, 1.0, -0.35, -0.15)">
      <g transform="matrix(1.0, 0.0, 0.0, 1.0, 0.0, 0.0)">
        <use fill="#000000" height="11.75" transform="matrix(0.0117, 0.0, 0.0, 0.0117, 0.0, 11.0)" width="21.35" xlink:href="#font_Arial_20"/>
        <use fill="#000000" height="11.75" transform="matrix(0.0117, 0.0, 0.0, 0.0117, 6.6, 11.0)" width="21.35" xlink:href="#font_Arial_60"/>
      </g>
    </g>
    <g id="font_Arial_20">
      <path d="M515.5 -86.5 L156.0 -86.5 Q171.0 -111.0 194.0 -135.0 217.0 -159.5 298.0 -227.5 395.0 -309.5 437.0 -356.5 478.5 -403.5 496.5 -446.0 514.5 -488.5 514.5 -532.5 514.5 -619.0 453.0 -677.5 391.5 -736.0 286.0 -736.0 181.5 -736.0 119.5 -681.5 57.5 -627.5 48.0 -524.0 L140.5 -514.5 Q141.0 -583.5 180.0 -622.5 219.0 -661.5 284.0 -661.5 345.5 -661.5 384.0 -624.5 422.0 -588.0 422.0 -534.5 422.0 -483.5 380.0 -426.0 338.0 -369.0 218.5 -271.0 141.5 -208.0 101.0 -160.0 60.0 -112.0 41.5 -62.5 30.0 -32.5 31.0 0.0 L515.5 0.0 515.5 -86.5" fill-rule="evenodd" stroke="none"/>
    </g>
    <g id="font_Arial_60">
      <path d="M142.0 -237.5 Q142.0 -308.5 184.5 -352.0 227.0 -396.0 288.0 -396.0 349.5 -396.0 390.0 -352.0 430.5 -308.5 430.5 -232.5 430.5 -153.5 389.5 -107.5 348.5 -61.5 291.5 -61.5 252.5 -61.5 217.0 -83.5 181.5 -106.0 162.0 -148.5 142.0 -191.0 142.0 -237.5 M509.5 -553.5 Q498.5 -639.0 443.5 -687.5 388.0 -736.0 301.5 -736.0 185.5 -736.0 117.0 -652.0 38.5 -555.5 38.5 -343.0 38.5 -153.0 109.5 -70.0 180.5 12.5 293.0 12.5 359.0 12.5 411.0 -19.0 463.0 -50.5 493.0 -109.5 522.5 -169.0 522.5 -238.0 522.5 -343.0 459.5 -409.0 396.0 -475.5 306.0 -475.5 254.5 -475.5 207.5 -451.5 160.5 -427.5 128.0 -378.0 129.0 -488.0 153.5 -547.5 178.0 -607.0 220.5 -638.0 253.0 -662.0 296.0 -662.0 349.5 -662.0 386.0 -623.5 408.0 -599.5 420.0 -546.5 L509.5 -553.5" fill-rule="evenodd" stroke="none"/>
    </g>
    <g id="shape1" transform="matrix(1.0, 0.0, 0.0, 1.0, -19.6, -32.0)">
      <path d="M21.15 48.35 L23.25 44.15 Q24.4 41.8 24.5 40.25 24.7 36.75 28.9 34.5 32.6 32.5 37.0 32.5 38.85 32.5 39.6 34.5 40.4 36.75 38.0 39.25 37.65 39.65 35.95 43.7 34.1 48.1 33.0 49.75 32.85 49.95 34.2 55.85 35.4 61.1 32.75 62.0 29.9 62.95 25.75 60.25 23.0 58.5 21.75 57.0 18.8 53.6 21.15 48.35" fill="#ebd79b" fill-rule="evenodd" stroke="none"/>
      <path d="M21.15 48.35 Q18.8 53.6 21.75 57.0 23.0 58.5 25.75 60.25 29.9 62.95 32.75 62.0 35.4 61.1 34.2 55.85 32.85 49.95 33.0 49.75 34.1 48.1 35.95 43.7 37.65 39.65 38.0 39.25 40.4 36.75 39.6 34.5 38.85 32.5 37.0 32.5 32.6 32.5 28.9 34.5 24.7 36.75 24.5 40.25 24.4 41.8 23.25 44.15 L21.15 48.35 Z" fill="none" stroke="#d17e2b" stroke-linecap="butt" stroke-linejoin="miter" stroke-width="1.0"/>
    </g>
  </defs>
</svg>
