<?xml version="1.0" encoding="UTF-8" standalone="no"?>
<svg xmlns:xlink="http://www.w3.org/1999/xlink" height="83.3px" width="82.0px" xmlns="http://www.w3.org/2000/svg">
  <g transform="matrix(1.0, 0.0, 0.0, 1.0, -0.35, 0.25)">
    <use height="72.3" transform="matrix(1.0, 0.0, 0.0, 1.0, 13.4, -0.25)" width="68.95" xlink:href="#shape0"/>
    <use height="11.6" transform="matrix(1.0, 0.0, 0.0, 1.0, 0.35, 22.55)" width="21.35" xlink:href="#text0"/>
    <use height="11.75" transform="matrix(1.0, 0.0, 0.0, 1.0, 45.85, 71.3)" width="21.35" xlink:href="#text1"/>
    <use height="43.05" transform="matrix(1.0, 0.0, 0.0, 1.0, 20.15, 24.45)" width="21.15" xlink:href="#shape1"/>
  </g>
  <defs>
    <g id="shape0" transform="matrix(1.0, 0.0, 0.0, 1.0, -13.4, 0.25)">
      <path d="M41.15 10.55 Q42.5 11.05 46.55 13.0 49.55 14.45 50.75 14.55 53.5 14.75 59.75 19.85 66.35 25.2 66.5 28.3 66.9 38.05 66.0 42.25 65.15 46.5 62.0 50.3 59.55 53.25 55.3 52.85 51.95 52.5 45.25 49.55 41.7 48.0 40.15 41.2 38.8 35.05 40.0 31.8 40.95 29.05 38.55 27.05 L33.15 23.95 Q29.65 22.05 28.8 19.95 27.7 17.05 30.75 12.55 33.95 7.85 41.15 10.55" fill="#b0c963" fill-rule="evenodd" stroke="none"/>
      <path d="M41.15 10.55 Q33.95 7.85 30.75 12.55 27.7 17.05 28.8 19.95 29.65 22.05 33.15 23.95 L38.55 27.05 Q40.95 29.05 40.0 31.8 38.8 35.05 40.15 41.2 41.7 48.0 45.25 49.55 51.95 52.5 55.3 52.85 59.55 53.25 62.0 50.3 65.15 46.5 66.0 42.25 66.9 38.05 66.5 28.3 66.35 25.2 59.75 19.85 53.5 14.75 50.75 14.55 49.55 14.45 46.55 13.0 42.5 11.05 41.15 10.55 Z" fill="none" stroke="#78ab44" stroke-linecap="butt" stroke-linejoin="miter" stroke-width="1.0"/>
      <path d="M14.3 0.25 L14.3 59.05" fill="none" stroke="#000000" stroke-linecap="butt" stroke-linejoin="miter" stroke-width="1.0"/>
      <path d="M13.9 0.5 L23.25 0.5" fill="none" stroke="#000000" stroke-linecap="butt" stroke-linejoin="miter" stroke-width="1.0"/>
      <path d="M14.0 58.75 L23.3 58.75" fill="none" stroke="#000000" stroke-linecap="butt" stroke-linejoin="miter" stroke-width="1.0"/>
      <path d="M23.0 71.1 L81.85 71.1" fill="none" stroke="#000000" stroke-linecap="butt" stroke-linejoin="miter" stroke-width="1.0"/>
      <path d="M23.25 71.55 L23.25 62.2" fill="none" stroke="#000000" stroke-linecap="butt" stroke-linejoin="miter" stroke-width="1.0"/>
      <path d="M81.5 71.45 L81.5 62.1" fill="none" stroke="#000000" stroke-linecap="butt" stroke-linejoin="miter" stroke-width="1.0"/>
    </g>
    <g id="text0" transform="matrix(1.0, 0.0, 0.0, 1.0, -0.35, -0.15)">
      <g transform="matrix(1.0, 0.0, 0.0, 1.0, 0.0, 0.0)">
        <use fill="#000000" height="11.6" transform="matrix(0.0117, 0.0, 0.0, 0.0117, 0.0, 11.0)" width="21.35" xlink:href="#font_Arial_20"/>
        <use fill="#000000" height="11.6" transform="matrix(0.0117, 0.0, 0.0, 0.0117, 6.6, 11.0)" width="21.35" xlink:href="#font_Arial_70"/>
      </g>
    </g>
    <g id="font_Arial_20">
      <path d="M515.5 -86.5 L156.0 -86.5 Q171.0 -111.0 194.0 -135.0 217.0 -159.5 298.0 -227.5 395.0 -309.5 437.0 -356.5 478.5 -403.5 496.5 -446.0 514.5 -488.5 514.5 -532.5 514.5 -619.0 453.0 -677.5 391.5 -736.0 286.0 -736.0 181.5 -736.0 119.5 -681.5 57.5 -627.5 48.0 -524.0 L140.5 -514.5 Q141.0 -583.5 180.0 -622.5 219.0 -661.5 284.0 -661.5 345.5 -661.5 384.0 -624.5 422.0 -588.0 422.0 -534.5 422.0 -483.5 380.0 -426.0 338.0 -369.0 218.5 -271.0 141.5 -208.0 101.0 -160.0 60.0 -112.0 41.5 -62.5 30.0 -32.5 31.0 0.0 L515.5 0.0 515.5 -86.5" fill-rule="evenodd" stroke="none"/>
    </g>
    <g id="font_Arial_70">
      <path d="M48.5 -637.0 L407.5 -637.0 Q339.0 -559.0 278.5 -445.0 217.5 -331.5 185.0 -209.0 152.5 -86.5 151.0 0.0 L243.5 0.0 Q251.0 -109.5 278.0 -201.5 315.5 -332.0 384.5 -455.5 453.0 -579.0 523.0 -653.5 L523.0 -723.5 48.5 -723.5 48.5 -637.0" fill-rule="evenodd" stroke="none"/>
    </g>
    <g id="text1" transform="matrix(1.0, 0.0, 0.0, 1.0, -0.35, -0.15)">
      <g transform="matrix(1.0, 0.0, 0.0, 1.0, 0.0, 0.0)">
        <use fill="#000000" height="11.75" transform="matrix(0.0117, 0.0, 0.0, 0.0117, 0.0, 11.0)" width="21.35" xlink:href="#font_Arial_20"/>
        <use fill="#000000" height="11.75" transform="matrix(0.0117, 0.0, 0.0, 0.0117, 6.6, 11.0)" width="21.35" xlink:href="#font_Arial_80"/>
      </g>
    </g>
    <g id="font_Arial_80">
      <path d="M134.0 -211.5 Q134.0 -274.5 176.0 -316.5 217.5 -358.5 281.0 -358.5 346.0 -358.5 389.5 -316.0 432.5 -273.5 432.5 -208.5 432.5 -144.5 390.5 -103.0 348.5 -61.5 284.0 -61.5 242.5 -61.5 206.5 -81.0 170.5 -101.0 152.5 -137.0 134.0 -173.0 134.0 -211.5 M163.0 -550.0 Q163.0 -596.0 197.0 -629.0 231.0 -662.0 282.5 -662.0 333.5 -662.0 368.0 -628.0 402.0 -594.5 402.0 -545.0 402.0 -497.5 369.0 -464.5 335.5 -432.0 283.5 -432.0 230.0 -432.0 196.5 -465.0 163.0 -498.0 163.0 -550.0 M181.0 -397.5 Q114.0 -380.0 78.0 -331.5 41.5 -283.5 41.5 -212.0 41.5 -116.0 108.0 -51.5 174.5 12.5 283.0 12.5 391.5 12.5 458.0 -51.5 524.5 -115.5 524.5 -209.5 524.5 -277.5 489.5 -326.5 454.0 -375.5 386.5 -397.5 441.0 -418.0 468.0 -455.5 494.5 -493.5 494.5 -544.5 494.5 -624.5 436.0 -680.0 377.5 -736.0 281.5 -736.0 186.0 -736.0 128.5 -681.5 71.0 -627.0 71.0 -547.0 71.0 -494.0 98.0 -456.0 125.0 -418.0 181.0 -397.5" fill-rule="evenodd" stroke="none"/>
    </g>
    <g id="shape1" transform="matrix(1.0, 0.0, 0.0, 1.0, -20.15, -24.45)">
      <path d="M33.25 34.55 Q18.5 38.8 21.0 29.55 21.85 26.45 23.0 25.8 23.75 25.35 25.75 25.05 27.85 24.35 31.7 28.15 35.65 32.05 33.25 34.55" fill="#ebd79b" fill-rule="evenodd" stroke="none"/>
      <path d="M33.25 34.55 Q35.65 32.05 31.7 28.15 27.85 24.35 25.75 25.05 23.75 25.35 23.0 25.8 21.85 26.45 21.0 29.55 18.5 38.8 33.25 34.55 Z" fill="none" stroke="#d17e2b" stroke-linecap="butt" stroke-linejoin="miter" stroke-width="1.0"/>
      <path d="M29.5 40.55 Q31.05 40.0 31.95 40.95 33.45 42.55 34.75 43.05 37.05 43.95 36.6 46.85 36.15 49.5 33.75 52.3 31.7 54.7 29.4 53.0 27.6 51.7 26.0 48.3 24.8 45.7 26.05 43.4 27.2 41.4 29.5 40.55" fill="#ebd79b" fill-rule="evenodd" stroke="none"/>
      <path d="M29.5 40.55 Q27.2 41.4 26.05 43.4 24.8 45.7 26.0 48.3 27.6 51.7 29.4 53.0 31.7 54.7 33.75 52.3 36.15 49.5 36.6 46.85 37.05 43.95 34.75 43.05 33.45 42.55 31.95 40.95 31.05 40.0 29.5 40.55 Z" fill="none" stroke="#d17e2b" stroke-linecap="butt" stroke-linejoin="miter" stroke-width="1.0"/>
      <path d="M35.0 65.3 Q33.2 63.85 35.15 60.2 36.7 57.3 38.5 55.8 39.65 54.85 40.3 56.55 40.95 58.35 40.75 62.55 40.45 69.75 35.0 65.3" fill="#ebd79b" fill-rule="evenodd" stroke="none"/>
      <path d="M35.0 65.3 Q40.45 69.75 40.75 62.55 40.95 58.35 40.3 56.55 39.65 54.85 38.5 55.8 36.7 57.3 35.15 60.2 33.2 63.85 35.0 65.3 Z" fill="none" stroke="#d17e2b" stroke-linecap="butt" stroke-linejoin="miter" stroke-width="1.0"/>
    </g>
  </defs>
</svg>
