<?xml version="1.0" encoding="UTF-8" standalone="no"?>
<svg xmlns:xlink="http://www.w3.org/1999/xlink" height="83.3px" width="90.8px" xmlns="http://www.w3.org/2000/svg">
  <g transform="matrix(1.0, 0.0, 0.0, 1.0, -0.35, 0.25)">
    <use height="72.3" transform="matrix(1.0, 0.0, 0.0, 1.0, 13.4, -0.25)" width="77.75" xlink:href="#shape0"/>
    <use height="11.75" transform="matrix(1.0, 0.0, 0.0, 1.0, 0.35, 22.55)" width="21.35" xlink:href="#text0"/>
    <use height="11.75" transform="matrix(1.0, 0.0, 0.0, 1.0, 45.85, 71.3)" width="21.35" xlink:href="#text1"/>
    <use height="26.75" transform="matrix(1.0, 0.0, 0.0, 1.0, 57.65, 30.05)" width="28.1" xlink:href="#shape1"/>
  </g>
  <defs>
    <g id="shape0" transform="matrix(1.0, 0.0, 0.0, 1.0, -13.4, 0.25)">
      <path d="M89.75 7.3 Q91.9 12.45 88.8 18.1 86.1 23.1 79.75 27.8 75.1 31.25 66.45 33.9 58.6 36.3 57.75 37.3 52.95 44.85 48.45 48.95 40.05 56.65 30.75 52.55 27.35 51.1 27.65 44.7 27.9 40.25 29.5 35.8 30.45 33.1 28.95 29.8 L25.6 23.9 Q21.25 16.05 26.75 8.8 32.1 1.75 44.5 4.3 47.35 4.9 53.4 6.75 57.95 8.2 59.25 8.05 L75.15 4.75 Q87.9 2.8 89.75 7.3" fill="#b0c963" fill-rule="evenodd" stroke="none"/>
      <path d="M89.75 7.3 Q87.9 2.8 75.15 4.75 L59.25 8.05 Q57.95 8.2 53.4 6.75 47.35 4.9 44.5 4.3 32.1 1.75 26.75 8.8 21.25 16.05 25.6 23.9 L28.95 29.8 Q30.45 33.1 29.5 35.8 27.9 40.25 27.65 44.7 27.35 51.1 30.75 52.55 40.05 56.65 48.45 48.95 52.95 44.85 57.75 37.3 58.6 36.3 66.45 33.9 75.1 31.25 79.75 27.8 86.1 23.1 88.8 18.1 91.9 12.45 89.75 7.3 Z" fill="none" stroke="#78ab44" stroke-linecap="butt" stroke-linejoin="miter" stroke-width="1.0"/>
      <path d="M14.3 0.25 L14.3 59.05" fill="none" stroke="#000000" stroke-linecap="butt" stroke-linejoin="miter" stroke-width="1.0"/>
      <path d="M13.9 0.5 L23.25 0.5" fill="none" stroke="#000000" stroke-linecap="butt" stroke-linejoin="miter" stroke-width="1.0"/>
      <path d="M14.0 58.75 L23.3 58.75" fill="none" stroke="#000000" stroke-linecap="butt" stroke-linejoin="miter" stroke-width="1.0"/>
      <path d="M23.0 71.1 L81.85 71.1" fill="none" stroke="#000000" stroke-linecap="butt" stroke-linejoin="miter" stroke-width="1.0"/>
      <path d="M23.25 71.55 L23.25 62.2" fill="none" stroke="#000000" stroke-linecap="butt" stroke-linejoin="miter" stroke-width="1.0"/>
      <path d="M81.5 71.45 L81.5 62.1" fill="none" stroke="#000000" stroke-linecap="butt" stroke-linejoin="miter" stroke-width="1.0"/>
    </g>
    <g id="text0" transform="matrix(1.0, 0.0, 0.0, 1.0, -0.35, -0.15)">
      <g transform="matrix(1.0, 0.0, 0.0, 1.0, 0.0, 0.0)">
        <use fill="#000000" height="11.75" transform="matrix(0.0117, 0.0, 0.0, 0.0117, 0.0, 11.0)" width="21.35" xlink:href="#font_Arial_20"/>
        <use fill="#000000" height="11.75" transform="matrix(0.0117, 0.0, 0.0, 0.0117, 6.6, 11.0)" width="21.35" xlink:href="#font_Arial_50"/>
      </g>
    </g>
    <g id="font_Arial_20">
      <path d="M515.5 -86.5 L156.0 -86.5 Q171.0 -111.0 194.0 -135.0 217.0 -159.5 298.0 -227.5 395.0 -309.5 437.0 -356.5 478.5 -403.5 496.5 -446.0 514.5 -488.5 514.5 -532.5 514.5 -619.0 453.0 -677.5 391.5 -736.0 286.0 -736.0 181.5 -736.0 119.5 -681.5 57.5 -627.5 48.0 -524.0 L140.5 -514.5 Q141.0 -583.5 180.0 -622.5 219.0 -661.5 284.0 -661.5 345.5 -661.5 384.0 -624.5 422.0 -588.0 422.0 -534.5 422.0 -483.5 380.0 -426.0 338.0 -369.0 218.5 -271.0 141.5 -208.0 101.0 -160.0 60.0 -112.0 41.5 -62.5 30.0 -32.5 31.0 0.0 L515.5 0.0 515.5 -86.5" fill-rule="evenodd" stroke="none"/>
    </g>
    <g id="font_Arial_50">
      <path d="M42.5 -192.0 Q51.5 -99.5 115.0 -43.5 178.0 12.5 278.0 12.5 400.0 12.5 470.5 -76.5 528.5 -149.0 528.5 -248.5 528.5 -353.0 462.5 -419.5 396.5 -486.0 300.5 -486.0 228.0 -486.0 162.0 -440.0 182.0 -538.5 201.5 -637.0 L494.0 -637.0 494.0 -723.0 129.5 -723.0 58.5 -346.5 143.0 -335.5 Q163.0 -367.0 198.0 -386.5 233.0 -406.5 276.5 -406.5 346.5 -406.5 390.0 -362.0 433.0 -317.5 433.0 -240.5 433.0 -159.5 388.0 -110.5 343.0 -61.5 278.0 -61.5 224.0 -61.5 186.0 -96.0 147.5 -131.0 137.0 -200.0 L42.5 -192.0" fill-rule="evenodd" stroke="none"/>
    </g>
    <g id="text1" transform="matrix(1.0, 0.0, 0.0, 1.0, -0.35, -0.15)">
      <g transform="matrix(1.0, 0.0, 0.0, 1.0, 0.0, 0.0)">
        <use fill="#000000" height="11.75" transform="matrix(0.0117, 0.0, 0.0, 0.0117, 0.0, 11.0)" width="21.35" xlink:href="#font_Arial_20"/>
        <use fill="#000000" height="11.75" transform="matrix(0.0117, 0.0, 0.0, 0.0117, 6.6, 11.0)" width="21.35" xlink:href="#font_Arial_80"/>
      </g>
    </g>
    <g id="font_Arial_80">
      <path d="M134.0 -211.5 Q134.0 -274.5 176.0 -316.5 217.5 -358.5 281.0 -358.5 346.0 -358.5 389.5 -316.0 432.5 -273.5 432.5 -208.5 432.5 -144.5 390.5 -103.0 348.5 -61.5 284.0 -61.5 242.5 -61.5 206.5 -81.0 170.5 -101.0 152.5 -137.0 134.0 -173.0 134.0 -211.5 M163.0 -550.0 Q163.0 -596.0 197.0 -629.0 231.0 -662.0 282.5 -662.0 333.5 -662.0 368.0 -628.0 402.0 -594.5 402.0 -545.0 402.0 -497.5 369.0 -464.5 335.5 -432.0 283.5 -432.0 230.0 -432.0 196.5 -465.0 163.0 -498.0 163.0 -550.0 M181.0 -397.5 Q114.0 -380.0 78.0 -331.5 41.5 -283.5 41.5 -212.0 41.5 -116.0 108.0 -51.5 174.5 12.5 283.0 12.5 391.5 12.5 458.0 -51.5 524.5 -115.5 524.5 -209.5 524.5 -277.5 489.5 -326.5 454.0 -375.5 386.5 -397.5 441.0 -418.0 468.0 -455.5 494.5 -493.5 494.5 -544.5 494.5 -624.5 436.0 -680.0 377.5 -736.0 281.5 -736.0 186.0 -736.0 128.5 -681.5 71.0 -627.0 71.0 -547.0 71.0 -494.0 98.0 -456.0 125.0 -418.0 181.0 -397.5" fill-rule="evenodd" stroke="none"/>
    </g>
    <g id="shape1" transform="matrix(1.0, 0.0, 0.0, 1.0, -57.65, -30.05)">
      <path d="M82.5 30.8 Q84.6 31.35 85.1 33.35 85.55 35.15 84.5 36.55 83.7 37.55 80.5 38.0 77.4 38.4 76.75 39.55 74.65 47.25 71.8 51.8 66.35 60.65 59.0 52.05 57.35 50.2 58.85 46.95 60.15 44.05 62.5 42.55 L68.05 37.45 Q72.7 33.05 74.75 32.3 L78.8 30.8 Q80.55 30.3 82.5 30.8" fill="#ebd79b" fill-rule="evenodd" stroke="none"/>
      <path d="M82.5 30.8 Q80.55 30.3 78.8 30.8 L74.75 32.3 Q72.7 33.05 68.05 37.45 L62.5 42.55 Q60.15 44.05 58.85 46.95 57.35 50.2 59.0 52.05 66.35 60.65 71.8 51.8 74.65 47.25 76.75 39.55 77.4 38.4 80.5 38.0 83.7 37.55 84.5 36.55 85.55 35.15 85.1 33.35 84.6 31.35 82.5 30.8 Z" fill="none" stroke="#d17e2b" stroke-linecap="butt" stroke-linejoin="miter" stroke-width="1.0"/>
    </g>
  </defs>
</svg>
