<?xml version="1.0" encoding="UTF-8" standalone="no"?>
<svg xmlns:xlink="http://www.w3.org/1999/xlink" height="83.3px" width="81.85px" xmlns="http://www.w3.org/2000/svg">
  <g transform="matrix(1.0, 0.0, 0.0, 1.0, -0.5, 0.25)">
    <use height="72.3" transform="matrix(1.0, 0.0, 0.0, 1.0, 13.4, -0.25)" width="68.95" xlink:href="#shape0"/>
    <use height="11.75" transform="matrix(1.0, 0.0, 0.0, 1.0, 0.5, 22.55)" width="21.2" xlink:href="#text0"/>
    <use height="11.75" transform="matrix(1.0, 0.0, 0.0, 1.0, 45.65, 71.3)" width="21.55" xlink:href="#text1"/>
    <use height="31.05" transform="matrix(1.0, 0.0, 0.0, 1.0, 25.0, 27.45)" width="14.2" xlink:href="#shape1"/>
  </g>
  <defs>
    <g id="shape0" transform="matrix(1.0, 0.0, 0.0, 1.0, -13.4, 0.25)">
      <path d="M47.4 3.9 L55.25 4.55 Q57.6 4.55 62.2 2.6 66.05 1.0 68.5 1.8 71.25 2.7 70.0 14.2 L68.25 28.8 68.9 44.65 Q68.75 51.25 66.0 54.55 63.2 57.95 58.55 58.85 53.45 59.8 47.75 57.3 44.15 55.75 41.4 45.05 38.85 35.0 40.0 31.8 40.95 29.05 38.55 26.45 L32.95 21.95 Q29.25 19.0 28.2 16.35 26.7 12.6 29.25 7.8 32.0 2.55 40.0 3.05 L47.4 3.9" fill="#b0c963" fill-rule="evenodd" stroke="none"/>
      <path d="M47.4 3.9 L40.0 3.05 Q32.0 2.55 29.25 7.8 26.7 12.6 28.2 16.35 29.25 19.0 32.95 21.95 L38.55 26.45 Q40.95 29.05 40.0 31.8 38.85 35.0 41.4 45.05 44.15 55.75 47.75 57.3 53.45 59.8 58.55 58.85 63.2 57.95 66.0 54.55 68.75 51.25 68.9 44.65 L68.25 28.8 70.0 14.2 Q71.25 2.7 68.5 1.8 66.05 1.0 62.2 2.6 57.6 4.55 55.25 4.55 L47.4 3.9 Z" fill="none" stroke="#78ab44" stroke-linecap="butt" stroke-linejoin="miter" stroke-width="1.0"/>
      <path d="M14.3 0.25 L14.3 59.05" fill="none" stroke="#000000" stroke-linecap="butt" stroke-linejoin="miter" stroke-width="1.0"/>
      <path d="M13.9 0.5 L23.25 0.5" fill="none" stroke="#000000" stroke-linecap="butt" stroke-linejoin="miter" stroke-width="1.0"/>
      <path d="M14.0 58.75 L23.3 58.75" fill="none" stroke="#000000" stroke-linecap="butt" stroke-linejoin="miter" stroke-width="1.0"/>
      <path d="M23.0 71.1 L81.85 71.1" fill="none" stroke="#000000" stroke-linecap="butt" stroke-linejoin="miter" stroke-width="1.0"/>
      <path d="M23.25 71.55 L23.25 62.2" fill="none" stroke="#000000" stroke-linecap="butt" stroke-linejoin="miter" stroke-width="1.0"/>
      <path d="M81.5 71.45 L81.5 62.1" fill="none" stroke="#000000" stroke-linecap="butt" stroke-linejoin="miter" stroke-width="1.0"/>
    </g>
    <g id="text0" transform="matrix(1.0, 0.0, 0.0, 1.0, -0.5, -0.15)">
      <g transform="matrix(1.0, 0.0, 0.0, 1.0, 0.0, 0.0)">
        <use fill="#000000" height="11.75" transform="matrix(0.0117, 0.0, 0.0, 0.0117, 0.0, 11.0)" width="21.2" xlink:href="#font_Arial_30"/>
        <use fill="#000000" height="11.75" transform="matrix(0.0117, 0.0, 0.0, 0.0117, 6.6, 11.0)" width="21.2" xlink:href="#font_Arial_70"/>
      </g>
    </g>
    <g id="font_Arial_30">
      <path d="M43.0 -193.5 Q52.0 -102.0 116.0 -44.5 179.5 13.0 276.0 13.0 383.0 13.0 453.0 -53.5 523.0 -120.5 523.0 -216.5 523.0 -287.5 487.0 -334.5 451.0 -382.0 386.0 -397.0 436.0 -420.0 461.5 -459.0 487.0 -498.0 487.0 -545.5 487.0 -595.5 460.5 -640.0 433.5 -684.5 383.0 -710.0 332.5 -736.0 272.5 -736.0 185.5 -736.0 127.0 -686.0 68.5 -636.5 52.0 -546.0 L142.0 -530.0 Q152.0 -596.0 187.0 -629.0 222.0 -662.0 274.5 -662.0 327.5 -662.0 361.0 -629.5 394.5 -597.0 394.5 -547.5 394.5 -485.0 348.5 -455.0 302.5 -425.0 245.0 -425.0 L230.5 -426.0 220.5 -347.0 Q258.5 -357.0 284.0 -357.0 346.5 -357.0 387.0 -316.5 427.5 -276.5 427.5 -214.5 427.5 -149.5 384.0 -105.5 340.0 -61.5 276.5 -61.5 223.0 -61.5 186.0 -95.0 148.5 -129.0 133.0 -205.5 L43.0 -193.5" fill-rule="evenodd" stroke="none"/>
    </g>
    <g id="font_Arial_70">
      <path d="M48.5 -637.0 L407.5 -637.0 Q339.0 -559.0 278.5 -445.0 217.5 -331.5 185.0 -209.0 152.5 -86.5 151.0 0.0 L243.5 0.0 Q251.0 -109.5 278.0 -201.5 315.5 -332.0 384.5 -455.5 453.0 -579.0 523.0 -653.5 L523.0 -723.5 48.5 -723.5 48.5 -637.0" fill-rule="evenodd" stroke="none"/>
    </g>
    <g id="text1" transform="matrix(1.0, 0.0, 0.0, 1.0, -0.15, -0.15)">
      <g transform="matrix(1.0, 0.0, 0.0, 1.0, 0.0, 0.0)">
        <use fill="#000000" height="11.75" transform="matrix(0.0117, 0.0, 0.0, 0.0117, 0.0, 11.0)" width="21.55" xlink:href="#font_Arial_40"/>
        <use fill="#000000" height="11.75" transform="matrix(0.0117, 0.0, 0.0, 0.0117, 6.6, 11.0)" width="21.55" xlink:href="#font_Arial_00"/>
      </g>
    </g>
    <g id="font_Arial_40">
      <path d="M331.0 -258.0 L101.5 -258.0 Q216.5 -423.0 331.0 -588.5 L331.0 -258.0 M331.0 0.0 L421.0 0.0 421.0 -175.5 520.0 -175.5 520.0 -258.0 421.0 -258.0 421.0 -733.0 347.5 -733.0 13.0 -258.0 13.0 -175.5 331.0 -175.5 331.0 0.0" fill-rule="evenodd" stroke="none"/>
    </g>
    <g id="font_Arial_00">
      <path d="M135.0 -361.5 Q135.0 -542.0 181.5 -609.0 218.5 -661.5 280.5 -661.5 343.5 -661.5 386.0 -602.0 428.0 -542.5 428.0 -361.5 428.0 -181.5 386.0 -121.5 343.5 -61.5 281.5 -61.5 219.5 -61.5 177.5 -121.0 135.0 -181.0 135.0 -361.5 M42.5 -361.5 Q42.5 -155.0 115.0 -63.5 175.5 12.5 281.5 12.5 362.0 12.5 415.0 -30.5 467.5 -74.0 494.0 -153.0 520.5 -232.5 520.5 -361.5 520.5 -470.5 504.0 -534.5 487.5 -599.0 458.5 -643.5 429.5 -688.5 385.0 -712.0 340.5 -736.0 281.5 -736.0 201.5 -736.0 149.0 -693.0 96.0 -650.0 69.5 -570.5 42.5 -491.5 42.5 -361.5" fill-rule="evenodd" stroke="none"/>
    </g>
    <g id="shape1" transform="matrix(1.0, 0.0, 0.0, 1.0, -25.0, -27.45)">
      <path d="M28.95 45.25 Q25.5 39.8 25.5 33.55 25.5 30.25 27.0 29.15 27.6 28.65 30.25 28.05 32.8 27.45 34.5 31.05 36.3 34.9 36.5 42.3 36.55 45.55 38.1 51.5 39.2 55.8 38.25 56.8 37.75 57.3 36.8 56.35 35.45 54.95 33.0 50.55 30.7 48.05 28.95 45.25" fill="#ebd79b" fill-rule="evenodd" stroke="none"/>
      <path d="M28.95 45.25 Q30.7 48.05 33.0 50.55 35.45 54.95 36.8 56.35 37.75 57.3 38.25 56.8 39.2 55.8 38.1 51.5 36.55 45.55 36.5 42.3 36.3 34.9 34.5 31.05 32.8 27.45 30.25 28.05 27.6 28.65 27.0 29.15 25.5 30.25 25.5 33.55 25.5 39.8 28.95 45.25 Z" fill="none" stroke="#d17e2b" stroke-linecap="butt" stroke-linejoin="miter" stroke-width="1.0"/>
    </g>
  </defs>
</svg>
