<?xml version="1.0" encoding="UTF-8" standalone="no"?>
<svg xmlns:xlink="http://www.w3.org/1999/xlink" height="83.15px" width="83.4px" xmlns="http://www.w3.org/2000/svg">
  <g transform="matrix(1.0, 0.0, 0.0, 1.0, -0.35, 0.25)">
    <use height="72.25" transform="matrix(1.0, 0.0, 0.0, 1.0, 13.4, -0.25)" width="68.95" xlink:href="#shape0"/>
    <use height="11.75" transform="matrix(1.0, 0.0, 0.0, 1.0, 0.35, 22.55)" width="21.35" xlink:href="#text0"/>
    <use height="11.6" transform="matrix(1.0, 0.0, 0.0, 1.0, 45.85, 71.3)" width="21.35" xlink:href="#text1"/>
    <use height="22.15" transform="matrix(1.0, 0.0, 0.0, 1.0, 62.75, 31.45)" width="21.0" xlink:href="#shape1"/>
  </g>
  <defs>
    <g id="shape0" transform="matrix(1.0, 0.0, 0.0, 1.0, -13.4, 0.25)">
      <path d="M45.9 15.5 L62.0 7.3 Q68.2 4.0 74.2 7.95 79.7 11.55 79.5 16.3 79.35 19.8 74.3 23.5 73.65 24.0 66.5 28.3 64.9 29.25 62.4 32.85 59.55 37.0 58.0 41.3 55.55 48.0 52.85 51.1 49.1 55.4 43.5 55.05 38.25 54.75 32.25 48.55 26.5 42.6 25.5 37.3 24.65 32.8 27.0 29.35 28.2 27.6 33.0 23.3 35.95 20.65 45.9 15.5" fill="#b0c963" fill-rule="evenodd" stroke="none"/>
      <path d="M45.9 15.5 Q35.95 20.65 33.0 23.3 28.2 27.6 27.0 29.35 24.65 32.8 25.5 37.3 26.5 42.6 32.25 48.55 38.25 54.75 43.5 55.05 49.1 55.4 52.85 51.1 55.55 48.0 58.0 41.3 59.55 37.0 62.4 32.85 64.9 29.25 66.5 28.3 73.65 24.0 74.3 23.5 79.35 19.8 79.5 16.3 79.7 11.55 74.2 7.95 68.2 4.0 62.0 7.3 L45.9 15.5 Z" fill="none" stroke="#78ab44" stroke-linecap="butt" stroke-linejoin="miter" stroke-width="1.0"/>
      <path d="M14.3 0.25 L14.3 59.05" fill="none" stroke="#000000" stroke-linecap="butt" stroke-linejoin="miter" stroke-width="1.0"/>
      <path d="M13.9 0.5 L23.25 0.5" fill="none" stroke="#000000" stroke-linecap="butt" stroke-linejoin="miter" stroke-width="1.0"/>
      <path d="M14.0 58.75 L23.3 58.75" fill="none" stroke="#000000" stroke-linecap="butt" stroke-linejoin="miter" stroke-width="1.0"/>
      <path d="M23.0 71.05 L81.85 71.05" fill="none" stroke="#000000" stroke-linecap="butt" stroke-linejoin="miter" stroke-width="1.0"/>
      <path d="M23.25 71.5 L23.25 62.2" fill="none" stroke="#000000" stroke-linecap="butt" stroke-linejoin="miter" stroke-width="1.0"/>
      <path d="M81.5 71.4 L81.5 62.1" fill="none" stroke="#000000" stroke-linecap="butt" stroke-linejoin="miter" stroke-width="1.0"/>
    </g>
    <g id="text0" transform="matrix(1.0, 0.0, 0.0, 1.0, -0.35, -0.15)">
      <g transform="matrix(1.0, 0.0, 0.0, 1.0, 0.0, 0.0)">
        <use fill="#000000" height="11.75" transform="matrix(0.0117, 0.0, 0.0, 0.0117, 0.0, 11.0)" width="21.35" xlink:href="#font_Arial_20"/>
        <use fill="#000000" height="11.75" transform="matrix(0.0117, 0.0, 0.0, 0.0117, 6.6, 11.0)" width="21.35" xlink:href="#font_Arial_90"/>
      </g>
    </g>
    <g id="font_Arial_20">
      <path d="M515.5 -86.5 L156.0 -86.5 Q171.0 -111.0 194.0 -135.0 217.0 -159.5 298.0 -227.5 395.0 -309.5 437.0 -356.5 478.5 -403.5 496.5 -446.0 514.5 -488.5 514.5 -532.5 514.5 -619.0 453.0 -677.5 391.5 -736.0 286.0 -736.0 181.5 -736.0 119.5 -681.5 57.5 -627.5 48.0 -524.0 L140.5 -514.5 Q141.0 -583.5 180.0 -622.5 219.0 -661.5 284.0 -661.5 345.5 -661.5 384.0 -624.5 422.0 -588.0 422.0 -534.5 422.0 -483.5 380.0 -426.0 338.0 -369.0 218.5 -271.0 141.5 -208.0 101.0 -160.0 60.0 -112.0 41.5 -62.5 30.0 -32.5 31.0 0.0 L515.5 0.0 515.5 -86.5" fill-rule="evenodd" stroke="none"/>
    </g>
    <g id="font_Arial_90">
      <path d="M424.5 -493.0 Q424.5 -415.5 384.5 -371.5 344.0 -328.0 281.5 -328.0 219.5 -328.0 177.5 -371.5 135.0 -415.5 135.0 -485.5 135.0 -563.5 179.5 -612.5 224.0 -661.5 284.0 -661.5 342.0 -661.5 383.5 -616.0 424.5 -570.5 424.5 -493.0 M56.0 -169.5 Q67.0 -83.0 121.5 -35.0 176.0 12.5 262.0 12.5 343.0 12.5 403.5 -31.0 463.5 -74.5 494.0 -157.5 524.5 -241.0 524.5 -381.5 524.5 -516.5 494.0 -587.5 463.0 -659.0 404.0 -697.5 344.5 -736.0 273.0 -736.0 174.0 -736.0 108.5 -668.0 42.5 -600.0 42.5 -488.5 42.5 -380.5 105.5 -314.5 168.5 -248.5 259.5 -248.5 314.0 -248.5 361.0 -275.0 407.5 -302.0 434.5 -345.0 L435.0 -327.0 Q435.0 -271.0 421.5 -217.0 408.0 -163.0 388.0 -131.0 368.0 -99.5 337.0 -80.5 305.5 -61.5 264.0 -61.5 215.5 -61.5 184.5 -89.0 153.5 -116.5 142.5 -177.5 L56.0 -169.5" fill-rule="evenodd" stroke="none"/>
    </g>
    <g id="text1" transform="matrix(1.0, 0.0, 0.0, 1.0, -0.35, -0.15)">
      <g transform="matrix(1.0, 0.0, 0.0, 1.0, 0.0, 0.0)">
        <use fill="#000000" height="11.6" transform="matrix(0.0117, 0.0, 0.0, 0.0117, 0.0, 11.0)" width="21.35" xlink:href="#font_Arial_20"/>
        <use fill="#000000" height="11.6" transform="matrix(0.0117, 0.0, 0.0, 0.0117, 6.6, 11.0)" width="21.35" xlink:href="#font_Arial_10"/>
      </g>
    </g>
    <g id="font_Arial_10">
      <path d="M381.5 0.0 L381.5 -736.0 323.5 -736.0 Q300.0 -688.5 243.5 -638.0 187.0 -587.5 111.5 -552.0 L111.5 -465.0 Q153.5 -480.5 206.5 -511.5 259.0 -542.5 291.5 -573.5 L291.5 0.0 381.5 0.0" fill-rule="evenodd" stroke="none"/>
    </g>
    <g id="shape1" transform="matrix(1.0, 0.0, 0.0, 1.0, -62.75, -31.45)">
      <path d="M83.25 36.8 Q83.15 39.3 81.6 43.25 79.85 47.75 77.45 50.35 70.8 57.7 64.0 45.55 62.25 42.5 64.65 39.45 65.95 37.85 68.25 35.8 71.05 31.5 77.25 32.0 83.45 32.45 83.25 36.8" fill="#ebd79b" fill-rule="evenodd" stroke="none"/>
      <path d="M83.25 36.8 Q83.45 32.45 77.25 32.0 71.05 31.5 68.25 35.8 65.95 37.85 64.65 39.45 62.25 42.5 64.0 45.55 70.8 57.7 77.45 50.35 79.85 47.75 81.6 43.25 83.15 39.3 83.25 36.8 Z" fill="none" stroke="#d17e2b" stroke-linecap="butt" stroke-linejoin="miter" stroke-width="1.0"/>
    </g>
  </defs>
</svg>
