<?xml version="1.0" encoding="UTF-8" standalone="no"?>
<svg xmlns:xlink="http://www.w3.org/1999/xlink" height="84.2px" width="81.85px" xmlns="http://www.w3.org/2000/svg">
  <g transform="matrix(1.0, 0.0, 0.0, 1.0, -0.5, 0.1)">
    <use height="73.2" transform="matrix(1.0, 0.0, 0.0, 1.0, 13.4, -0.1)" width="68.95" xlink:href="#shape0"/>
    <use height="11.75" transform="matrix(1.0, 0.0, 0.0, 1.0, 0.5, 23.6)" width="21.2" xlink:href="#text0"/>
    <use height="11.75" transform="matrix(1.0, 0.0, 0.0, 1.0, 45.85, 72.35)" width="21.35" xlink:href="#text1"/>
    <use height="53.25" transform="matrix(1.0, 0.0, 0.0, 1.0, 21.3, 1.85)" width="58.05" xlink:href="#shape1"/>
  </g>
  <defs>
    <g id="shape0" transform="matrix(1.0, 0.0, 0.0, 1.0, -13.4, 0.1)">
      <path d="M48.1 3.0 Q57.2 -1.55 64.5 1.85 67.1 2.45 65.3 10.85 L62.75 22.1 62.35 36.0 Q61.55 47.7 58.75 51.85 54.95 57.4 52.8 58.65 51.1 59.6 46.5 59.6 42.1 59.6 39.4 56.3 36.65 52.95 37.0 47.6 37.1 46.2 35.8 32.0 34.8 20.55 36.75 14.85 39.3 7.35 48.1 3.0" fill="#b0c963" fill-rule="evenodd" stroke="none"/>
      <path d="M48.1 3.0 Q39.3 7.35 36.75 14.85 34.8 20.55 35.8 32.0 37.1 46.2 37.0 47.6 36.65 52.95 39.4 56.3 42.1 59.6 46.5 59.6 51.1 59.6 52.8 58.65 54.95 57.4 58.75 51.85 61.55 47.7 62.35 36.0 L62.75 22.1 65.3 10.85 Q67.1 2.45 64.5 1.85 57.2 -1.55 48.1 3.0 Z" fill="none" stroke="#78ab44" stroke-linecap="butt" stroke-linejoin="miter" stroke-width="1.0"/>
      <path d="M14.3 1.3 L14.3 60.1" fill="none" stroke="#000000" stroke-linecap="butt" stroke-linejoin="miter" stroke-width="1.0"/>
      <path d="M13.9 1.55 L23.25 1.55" fill="none" stroke="#000000" stroke-linecap="butt" stroke-linejoin="miter" stroke-width="1.0"/>
      <path d="M14.0 59.8 L23.3 59.8" fill="none" stroke="#000000" stroke-linecap="butt" stroke-linejoin="miter" stroke-width="1.0"/>
      <path d="M23.0 72.15 L81.85 72.15" fill="none" stroke="#000000" stroke-linecap="butt" stroke-linejoin="miter" stroke-width="1.0"/>
      <path d="M23.25 72.6 L23.25 63.25" fill="none" stroke="#000000" stroke-linecap="butt" stroke-linejoin="miter" stroke-width="1.0"/>
      <path d="M81.5 72.5 L81.5 63.15" fill="none" stroke="#000000" stroke-linecap="butt" stroke-linejoin="miter" stroke-width="1.0"/>
    </g>
    <g id="text0" transform="matrix(1.0, 0.0, 0.0, 1.0, -0.5, -0.15)">
      <g transform="matrix(1.0, 0.0, 0.0, 1.0, 0.0, 0.0)">
        <use fill="#000000" height="11.75" transform="matrix(0.0117, 0.0, 0.0, 0.0117, 0.0, 11.0)" width="21.2" xlink:href="#font_Arial_30"/>
        <use fill="#000000" height="11.75" transform="matrix(0.0117, 0.0, 0.0, 0.0117, 6.6, 11.0)" width="21.2" xlink:href="#font_Arial_40"/>
      </g>
    </g>
    <g id="font_Arial_30">
      <path d="M43.0 -193.5 Q52.0 -102.0 116.0 -44.5 179.5 13.0 276.0 13.0 383.0 13.0 453.0 -53.5 523.0 -120.5 523.0 -216.5 523.0 -287.5 487.0 -334.5 451.0 -382.0 386.0 -397.0 436.0 -420.0 461.5 -459.0 487.0 -498.0 487.0 -545.5 487.0 -595.5 460.5 -640.0 433.5 -684.5 383.0 -710.0 332.5 -736.0 272.5 -736.0 185.5 -736.0 127.0 -686.0 68.5 -636.5 52.0 -546.0 L142.0 -530.0 Q152.0 -596.0 187.0 -629.0 222.0 -662.0 274.5 -662.0 327.5 -662.0 361.0 -629.5 394.5 -597.0 394.5 -547.5 394.5 -485.0 348.5 -455.0 302.5 -425.0 245.0 -425.0 L230.5 -426.0 220.5 -347.0 Q258.5 -357.0 284.0 -357.0 346.5 -357.0 387.0 -316.5 427.5 -276.5 427.5 -214.5 427.5 -149.5 384.0 -105.5 340.0 -61.5 276.5 -61.5 223.0 -61.5 186.0 -95.0 148.5 -129.0 133.0 -205.5 L43.0 -193.5" fill-rule="evenodd" stroke="none"/>
    </g>
    <g id="font_Arial_40">
      <path d="M331.0 -258.0 L101.5 -258.0 Q216.5 -423.0 331.0 -588.5 L331.0 -258.0 M331.0 0.0 L421.0 0.0 421.0 -175.5 520.0 -175.5 520.0 -258.0 421.0 -258.0 421.0 -733.0 347.5 -733.0 13.0 -258.0 13.0 -175.5 331.0 -175.5 331.0 0.0" fill-rule="evenodd" stroke="none"/>
    </g>
    <g id="text1" transform="matrix(1.0, 0.0, 0.0, 1.0, -0.35, -0.15)">
      <g transform="matrix(1.0, 0.0, 0.0, 1.0, 0.0, 0.0)">
        <use fill="#000000" height="11.75" transform="matrix(0.0117, 0.0, 0.0, 0.0117, 0.0, 11.0)" width="21.35" xlink:href="#font_Arial_20"/>
        <use fill="#000000" height="11.75" transform="matrix(0.0117, 0.0, 0.0, 0.0117, 6.6, 11.0)" width="21.35" xlink:href="#font_Arial_50"/>
      </g>
    </g>
    <g id="font_Arial_20">
      <path d="M515.5 -86.5 L156.0 -86.5 Q171.0 -111.0 194.0 -135.0 217.0 -159.5 298.0 -227.5 395.0 -309.5 437.0 -356.5 478.5 -403.5 496.5 -446.0 514.5 -488.5 514.5 -532.5 514.5 -619.0 453.0 -677.5 391.5 -736.0 286.0 -736.0 181.5 -736.0 119.5 -681.5 57.5 -627.5 48.0 -524.0 L140.5 -514.5 Q141.0 -583.5 180.0 -622.5 219.0 -661.5 284.0 -661.5 345.5 -661.5 384.0 -624.5 422.0 -588.0 422.0 -534.5 422.0 -483.5 380.0 -426.0 338.0 -369.0 218.5 -271.0 141.5 -208.0 101.0 -160.0 60.0 -112.0 41.5 -62.5 30.0 -32.5 31.0 0.0 L515.5 0.0 515.5 -86.5" fill-rule="evenodd" stroke="none"/>
    </g>
    <g id="font_Arial_50">
      <path d="M42.5 -192.0 Q51.5 -99.5 115.0 -43.5 178.0 12.5 278.0 12.5 400.0 12.5 470.5 -76.5 528.5 -149.0 528.5 -248.5 528.5 -353.0 462.5 -419.5 396.5 -486.0 300.5 -486.0 228.0 -486.0 162.0 -440.0 182.0 -538.5 201.5 -637.0 L494.0 -637.0 494.0 -723.0 129.5 -723.0 58.5 -346.5 143.0 -335.5 Q163.0 -367.0 198.0 -386.5 233.0 -406.5 276.5 -406.5 346.5 -406.5 390.0 -362.0 433.0 -317.5 433.0 -240.5 433.0 -159.5 388.0 -110.5 343.0 -61.5 278.0 -61.5 224.0 -61.5 186.0 -96.0 147.5 -131.0 137.0 -200.0 L42.5 -192.0" fill-rule="evenodd" stroke="none"/>
    </g>
    <g id="shape1" transform="matrix(1.0, 0.0, 0.0, 1.0, -21.3, -1.85)">
      <path d="M78.5 18.85 Q76.7 20.25 75.35 21.8 72.7 24.8 72.75 29.35 72.75 31.35 75.6 35.55 78.6 39.9 78.75 42.1 79.1 46.9 75.8 50.8 72.65 54.6 68.75 54.6 65.5 54.6 65.8 51.05 L67.75 42.1 Q68.75 37.55 67.15 29.55 65.5 21.55 65.75 20.35 66.3 17.85 72.95 17.25 79.7 16.7 78.5 18.85" fill="#ebd79b" fill-rule="evenodd" stroke="none"/>
      <path d="M78.5 18.85 Q76.7 20.25 75.35 21.8 72.7 24.8 72.75 29.35 72.75 31.35 75.6 35.55 78.6 39.9 78.75 42.1 79.1 46.9 75.8 50.8 72.65 54.6 68.75 54.6 65.5 54.6 65.8 51.05 L67.75 42.1 Q68.75 37.55 67.15 29.55 65.5 21.55 65.75 20.35 66.3 17.85 72.95 17.25 79.7 16.7 78.5 18.85 Z" fill="none" stroke="#d17e2b" stroke-linecap="butt" stroke-linejoin="miter" stroke-width="1.0"/>
      <path d="M24.0 19.35 Q22.3 17.85 22.0 14.25 21.65 10.2 23.75 7.1 25.85 3.95 29.9 2.65 L36.0 2.35 Q38.2 3.1 37.4 7.0 36.7 10.75 34.0 14.1 31.3 17.45 28.45 19.0 25.45 20.65 24.0 19.35" fill="#ebd79b" fill-rule="evenodd" stroke="none"/>
      <path d="M24.0 19.35 Q25.45 20.65 28.45 19.0 31.3 17.45 34.0 14.1 36.7 10.75 37.4 7.0 38.2 3.1 36.0 2.35 L29.9 2.65 Q25.85 3.95 23.75 7.1 21.65 10.2 22.0 14.25 22.3 17.85 24.0 19.35 Z" fill="none" stroke="#d17e2b" stroke-linecap="butt" stroke-linejoin="miter" stroke-width="1.0"/>
    </g>
  </defs>
</svg>
