<?xml version="1.0" encoding="UTF-8" standalone="no"?>
<svg xmlns:xlink="http://www.w3.org/1999/xlink" height="90.1px" width="81.85px" xmlns="http://www.w3.org/2000/svg">
  <g transform="matrix(1.0, 0.0, 0.0, 1.0, -0.5, 0.3)">
    <use height="79.25" transform="matrix(1.0, 0.0, 0.0, 1.0, 13.5, -0.3)" width="68.85" xlink:href="#shape0"/>
    <use height="11.75" transform="matrix(1.0, 0.0, 0.0, 1.0, 0.5, 23.45)" width="21.2" xlink:href="#text0"/>
    <use height="11.6" transform="matrix(1.0, 0.0, 0.0, 1.0, 46.8, 78.2)" width="20.4" xlink:href="#text1"/>
  </g>
  <defs>
    <g id="shape0" transform="matrix(1.0, 0.0, 0.0, 1.0, -13.5, 0.3)">
      <path d="M58.5 3.3 Q65.0 6.3 62.45 13.2 60.9 17.45 56.15 22.65 53.8 25.2 53.45 29.45 L52.5 45.95 Q51.65 57.0 45.8 60.8 42.3 63.05 36.8 62.65 28.6 61.55 27.95 54.9 27.7 52.4 29.8 42.65 31.15 36.55 31.05 34.05 30.85 30.95 28.5 25.95 25.3 19.3 25.15 18.45 24.6 15.5 26.8 8.95 29.15 2.15 40.15 0.75 50.3 -0.5 58.5 3.3" fill="#b0c963" fill-rule="evenodd" stroke="none"/>
      <path d="M58.5 3.3 Q50.3 -0.5 40.15 0.75 29.15 2.15 26.8 8.95 24.6 15.5 25.15 18.45 25.3 19.3 28.5 25.95 30.85 30.95 31.05 34.05 31.15 36.55 29.8 42.65 27.7 52.4 27.95 54.9 28.6 61.55 36.8 62.65 42.3 63.05 45.8 60.8 51.65 57.0 52.5 45.95 L53.45 29.45 Q53.8 25.2 56.15 22.65 60.9 17.45 62.45 13.2 65.0 6.3 58.5 3.3 Z" fill="none" stroke="#78ab44" stroke-linecap="butt" stroke-linejoin="miter" stroke-width="1.0"/>
      <path d="M63.8 49.3 Q60.95 49.3 59.9 48.0 58.35 46.0 58.15 39.65 57.9 33.35 61.85 30.6 65.25 28.25 67.8 29.95 69.25 30.95 67.65 33.5 65.5 36.9 65.5 38.65 65.5 40.65 65.85 45.5 65.8 49.3 63.8 49.3" fill="#ebd79b" fill-rule="evenodd" stroke="none"/>
      <path d="M63.8 49.3 Q60.95 49.3 59.9 48.0 58.35 46.0 58.15 39.65 57.9 33.35 61.85 30.6 65.25 28.25 67.8 29.95 69.25 30.95 67.65 33.5 65.5 36.9 65.5 38.65 65.5 40.65 65.85 45.5 65.8 49.3 63.8 49.3 Z" fill="none" stroke="#d17e2b" stroke-linecap="butt" stroke-linejoin="miter" stroke-width="1.0"/>
      <path d="M58.8 54.95 Q60.05 53.25 65.85 55.3 71.6 57.35 72.5 59.65 73.7 62.85 73.35 67.4 72.9 72.75 69.8 71.65 66.4 70.4 61.95 63.55 57.55 56.75 58.8 54.95" fill="#ebd79b" fill-rule="evenodd" stroke="none"/>
      <path d="M58.8 54.95 Q60.05 53.25 65.85 55.3 71.6 57.35 72.5 59.65 73.7 62.85 73.35 67.4 72.9 72.75 69.8 71.65 66.4 70.4 61.95 63.55 57.55 56.75 58.8 54.95 Z" fill="none" stroke="#d17e2b" stroke-linecap="butt" stroke-linejoin="miter" stroke-width="1.0"/>
      <path d="M14.3 1.15 L14.3 59.95" fill="none" stroke="#000000" stroke-linecap="butt" stroke-linejoin="miter" stroke-width="1.0"/>
      <path d="M14.0 59.65 L23.3 59.65" fill="none" stroke="#000000" stroke-linecap="butt" stroke-linejoin="miter" stroke-width="1.0"/>
      <path d="M23.0 78.0 L81.85 78.0" fill="none" stroke="#000000" stroke-linecap="butt" stroke-linejoin="miter" stroke-width="1.0"/>
      <path d="M23.25 78.45 L23.25 69.1" fill="none" stroke="#000000" stroke-linecap="butt" stroke-linejoin="miter" stroke-width="1.0"/>
      <path d="M81.5 78.35 L81.5 69.0" fill="none" stroke="#000000" stroke-linecap="butt" stroke-linejoin="miter" stroke-width="1.0"/>
    </g>
    <g id="text0" transform="matrix(1.0, 0.0, 0.0, 1.0, -0.5, -0.15)">
      <g transform="matrix(1.0, 0.0, 0.0, 1.0, 0.0, 0.0)">
        <use fill="#000000" height="11.75" transform="matrix(0.0117, 0.0, 0.0, 0.0117, 0.0, 11.0)" width="21.2" xlink:href="#font_Arial_30"/>
        <use fill="#000000" height="11.75" transform="matrix(0.0117, 0.0, 0.0, 0.0117, 6.6, 11.0)" width="21.2" xlink:href="#font_Arial_50"/>
      </g>
    </g>
    <g id="font_Arial_30">
      <path d="M43.0 -193.5 Q52.0 -102.0 116.0 -44.5 179.5 13.0 276.0 13.0 383.0 13.0 453.0 -53.5 523.0 -120.5 523.0 -216.5 523.0 -287.5 487.0 -334.5 451.0 -382.0 386.0 -397.0 436.0 -420.0 461.5 -459.0 487.0 -498.0 487.0 -545.5 487.0 -595.5 460.5 -640.0 433.5 -684.5 383.0 -710.0 332.5 -736.0 272.5 -736.0 185.5 -736.0 127.0 -686.0 68.5 -636.5 52.0 -546.0 L142.0 -530.0 Q152.0 -596.0 187.0 -629.0 222.0 -662.0 274.5 -662.0 327.5 -662.0 361.0 -629.5 394.5 -597.0 394.5 -547.5 394.5 -485.0 348.5 -455.0 302.5 -425.0 245.0 -425.0 L230.5 -426.0 220.5 -347.0 Q258.5 -357.0 284.0 -357.0 346.5 -357.0 387.0 -316.5 427.5 -276.5 427.5 -214.5 427.5 -149.5 384.0 -105.5 340.0 -61.5 276.5 -61.5 223.0 -61.5 186.0 -95.0 148.5 -129.0 133.0 -205.5 L43.0 -193.5" fill-rule="evenodd" stroke="none"/>
    </g>
    <g id="font_Arial_50">
      <path d="M42.5 -192.0 Q51.5 -99.5 115.0 -43.5 178.0 12.5 278.0 12.5 400.0 12.5 470.5 -76.5 528.5 -149.0 528.5 -248.5 528.5 -353.0 462.5 -419.5 396.5 -486.0 300.5 -486.0 228.0 -486.0 162.0 -440.0 182.0 -538.5 201.5 -637.0 L494.0 -637.0 494.0 -723.0 129.5 -723.0 58.5 -346.5 143.0 -335.5 Q163.0 -367.0 198.0 -386.5 233.0 -406.5 276.5 -406.5 346.5 -406.5 390.0 -362.0 433.0 -317.5 433.0 -240.5 433.0 -159.5 388.0 -110.5 343.0 -61.5 278.0 -61.5 224.0 -61.5 186.0 -96.0 147.5 -131.0 137.0 -200.0 L42.5 -192.0" fill-rule="evenodd" stroke="none"/>
    </g>
    <g id="text1" transform="matrix(1.0, 0.0, 0.0, 1.0, -1.3, -0.15)">
      <g transform="matrix(1.0, 0.0, 0.0, 1.0, 0.0, 0.0)">
        <use fill="#000000" height="11.6" transform="matrix(0.0117, 0.0, 0.0, 0.0117, 0.0, 11.0)" width="20.4" xlink:href="#font_Arial_10"/>
        <use fill="#000000" height="11.6" transform="matrix(0.0117, 0.0, 0.0, 0.0117, 6.6, 11.0)" width="20.4" xlink:href="#font_Arial_70"/>
      </g>
    </g>
    <g id="font_Arial_10">
      <path d="M381.5 0.0 L381.5 -736.0 323.5 -736.0 Q300.0 -688.5 243.5 -638.0 187.0 -587.5 111.5 -552.0 L111.5 -465.0 Q153.5 -480.5 206.5 -511.5 259.0 -542.5 291.5 -573.5 L291.5 0.0 381.5 0.0" fill-rule="evenodd" stroke="none"/>
    </g>
    <g id="font_Arial_70">
      <path d="M48.5 -637.0 L407.5 -637.0 Q339.0 -559.0 278.5 -445.0 217.5 -331.5 185.0 -209.0 152.5 -86.5 151.0 0.0 L243.5 0.0 Q251.0 -109.5 278.0 -201.5 315.5 -332.0 384.5 -455.5 453.0 -579.0 523.0 -653.5 L523.0 -723.5 48.5 -723.5 48.5 -637.0" fill-rule="evenodd" stroke="none"/>
    </g>
  </defs>
</svg>
