<?xml version="1.0" encoding="UTF-8" standalone="no"?>
<svg xmlns:xlink="http://www.w3.org/1999/xlink" height="84.3px" width="81.85px" xmlns="http://www.w3.org/2000/svg">
  <g transform="matrix(1.0, 0.0, 0.0, 1.0, -0.5, 0.25)">
    <use height="73.3" transform="matrix(1.0, 0.0, 0.0, 1.0, 13.4, -0.25)" width="68.95" xlink:href="#shape0"/>
    <use height="11.75" transform="matrix(1.0, 0.0, 0.0, 1.0, 0.5, 22.55)" width="21.2" xlink:href="#text0"/>
    <use height="11.75" transform="matrix(1.0, 0.0, 0.0, 1.0, 45.85, 72.3)" width="21.35" xlink:href="#text1"/>
    <use height="32.75" transform="matrix(1.0, 0.0, 0.0, 1.0, 47.3, 21.55)" width="26.55" xlink:href="#shape1"/>
  </g>
  <defs>
    <g id="shape0" transform="matrix(1.0, 0.0, 0.0, 1.0, -13.4, 0.25)">
      <path d="M51.25 3.2 Q59.6 1.4 67.5 5.05 73.6 7.95 66.85 13.6 57.85 19.65 56.15 21.75 54.2 24.15 50.2 35.75 46.0 47.75 43.75 51.05 40.4 55.95 36.8 55.8 35.65 55.8 34.4 55.2 L33.0 54.55 Q31.2 54.1 28.55 48.7 25.65 42.75 26.0 37.8 26.25 33.65 31.95 25.7 38.5 16.4 40.0 12.05 42.4 5.1 51.25 3.2" fill="#b0c963" fill-rule="evenodd" stroke="none"/>
      <path d="M51.25 3.2 Q42.4 5.1 40.0 12.05 38.5 16.4 31.95 25.7 26.25 33.65 26.0 37.8 25.65 42.75 28.55 48.7 31.2 54.1 33.0 54.55 L34.4 55.2 Q35.65 55.8 36.8 55.8 40.4 55.95 43.75 51.05 46.0 47.75 50.2 35.75 54.2 24.15 56.15 21.75 57.85 19.65 66.85 13.6 73.6 7.95 67.5 5.05 59.6 1.4 51.25 3.2 Z" fill="none" stroke="#78ab44" stroke-linecap="butt" stroke-linejoin="miter" stroke-width="1.0"/>
      <path d="M14.3 0.25 L14.3 59.05" fill="none" stroke="#000000" stroke-linecap="butt" stroke-linejoin="miter" stroke-width="1.0"/>
      <path d="M13.9 0.5 L23.25 0.5" fill="none" stroke="#000000" stroke-linecap="butt" stroke-linejoin="miter" stroke-width="1.0"/>
      <path d="M14.0 58.75 L23.3 58.75" fill="none" stroke="#000000" stroke-linecap="butt" stroke-linejoin="miter" stroke-width="1.0"/>
      <path d="M23.0 72.1 L81.85 72.1" fill="none" stroke="#000000" stroke-linecap="butt" stroke-linejoin="miter" stroke-width="1.0"/>
      <path d="M23.25 72.55 L23.25 63.2" fill="none" stroke="#000000" stroke-linecap="butt" stroke-linejoin="miter" stroke-width="1.0"/>
      <path d="M81.5 72.45 L81.5 63.1" fill="none" stroke="#000000" stroke-linecap="butt" stroke-linejoin="miter" stroke-width="1.0"/>
    </g>
    <g id="text0" transform="matrix(1.0, 0.0, 0.0, 1.0, -0.5, -0.15)">
      <g transform="matrix(1.0, 0.0, 0.0, 1.0, 0.0, 0.0)">
        <use fill="#000000" height="11.75" transform="matrix(0.0117, 0.0, 0.0, 0.0117, 0.0, 11.0)" width="21.2" xlink:href="#font_Arial_30"/>
        <use fill="#000000" height="11.75" transform="matrix(0.0117, 0.0, 0.0, 0.0117, 6.6, 11.0)" width="21.2" xlink:href="#font_Arial_00"/>
      </g>
    </g>
    <g id="font_Arial_30">
      <path d="M43.0 -193.5 Q52.0 -102.0 116.0 -44.5 179.5 13.0 276.0 13.0 383.0 13.0 453.0 -53.5 523.0 -120.5 523.0 -216.5 523.0 -287.5 487.0 -334.5 451.0 -382.0 386.0 -397.0 436.0 -420.0 461.5 -459.0 487.0 -498.0 487.0 -545.5 487.0 -595.5 460.5 -640.0 433.5 -684.5 383.0 -710.0 332.5 -736.0 272.5 -736.0 185.5 -736.0 127.0 -686.0 68.5 -636.5 52.0 -546.0 L142.0 -530.0 Q152.0 -596.0 187.0 -629.0 222.0 -662.0 274.5 -662.0 327.5 -662.0 361.0 -629.5 394.5 -597.0 394.5 -547.5 394.5 -485.0 348.5 -455.0 302.5 -425.0 245.0 -425.0 L230.5 -426.0 220.5 -347.0 Q258.5 -357.0 284.0 -357.0 346.5 -357.0 387.0 -316.5 427.5 -276.5 427.5 -214.5 427.5 -149.5 384.0 -105.5 340.0 -61.5 276.5 -61.5 223.0 -61.5 186.0 -95.0 148.5 -129.0 133.0 -205.5 L43.0 -193.5" fill-rule="evenodd" stroke="none"/>
    </g>
    <g id="font_Arial_00">
      <path d="M135.0 -361.5 Q135.0 -542.0 181.5 -609.0 218.5 -661.5 280.5 -661.5 343.5 -661.5 386.0 -602.0 428.0 -542.5 428.0 -361.5 428.0 -181.5 386.0 -121.5 343.5 -61.5 281.5 -61.5 219.5 -61.5 177.5 -121.0 135.0 -181.0 135.0 -361.5 M42.5 -361.5 Q42.5 -155.0 115.0 -63.5 175.5 12.5 281.5 12.5 362.0 12.5 415.0 -30.5 467.5 -74.0 494.0 -153.0 520.5 -232.5 520.5 -361.5 520.5 -470.5 504.0 -534.5 487.5 -599.0 458.5 -643.5 429.5 -688.5 385.0 -712.0 340.5 -736.0 281.5 -736.0 201.5 -736.0 149.0 -693.0 96.0 -650.0 69.5 -570.5 42.5 -491.5 42.5 -361.5" fill-rule="evenodd" stroke="none"/>
    </g>
    <g id="text1" transform="matrix(1.0, 0.0, 0.0, 1.0, -0.35, -0.15)">
      <g transform="matrix(1.0, 0.0, 0.0, 1.0, 0.0, 0.0)">
        <use fill="#000000" height="11.75" transform="matrix(0.0117, 0.0, 0.0, 0.0117, 0.0, 11.0)" width="21.35" xlink:href="#font_Arial_20"/>
        <use fill="#000000" height="11.75" transform="matrix(0.0117, 0.0, 0.0, 0.0117, 6.6, 11.0)" width="21.35" xlink:href="#font_Arial_00"/>
      </g>
    </g>
    <g id="font_Arial_20">
      <path d="M515.5 -86.5 L156.0 -86.5 Q171.0 -111.0 194.0 -135.0 217.0 -159.5 298.0 -227.5 395.0 -309.5 437.0 -356.5 478.5 -403.5 496.5 -446.0 514.5 -488.5 514.5 -532.5 514.5 -619.0 453.0 -677.5 391.5 -736.0 286.0 -736.0 181.5 -736.0 119.5 -681.5 57.5 -627.5 48.0 -524.0 L140.5 -514.5 Q141.0 -583.5 180.0 -622.5 219.0 -661.5 284.0 -661.5 345.5 -661.5 384.0 -624.5 422.0 -588.0 422.0 -534.5 422.0 -483.5 380.0 -426.0 338.0 -369.0 218.5 -271.0 141.5 -208.0 101.0 -160.0 60.0 -112.0 41.5 -62.5 30.0 -32.5 31.0 0.0 L515.5 0.0 515.5 -86.5" fill-rule="evenodd" stroke="none"/>
    </g>
    <g id="shape1" transform="matrix(1.0, 0.0, 0.0, 1.0, -47.3, -21.55)">
      <path d="M71.5 23.8 Q73.4 25.5 73.35 31.3 73.3 37.1 71.25 37.3 L66.9 37.45 Q64.3 37.55 62.75 38.3 62.05 38.65 61.75 41.25 61.3 45.0 60.85 46.5 58.65 53.8 49.5 53.8 47.75 53.8 47.8 53.05 47.8 52.5 49.05 50.85 52.75 45.8 53.5 42.55 55.15 34.95 56.05 32.45 57.55 28.2 59.75 27.55 60.75 27.25 61.95 24.45 62.95 22.05 67.0 22.05 L68.95 22.1 Q69.85 22.3 71.5 23.8" fill="#ebd79b" fill-rule="evenodd" stroke="none"/>
      <path d="M71.5 23.8 Q73.4 25.5 73.35 31.3 73.3 37.1 71.25 37.3 L66.9 37.45 Q64.3 37.55 62.75 38.3 62.05 38.65 61.75 41.25 61.3 45.0 60.85 46.5 58.65 53.8 49.5 53.8 47.75 53.8 47.8 53.05 47.8 52.5 49.05 50.85 52.75 45.8 53.5 42.55 55.15 34.95 56.05 32.45 57.55 28.2 59.75 27.55 60.75 27.25 61.95 24.45 62.95 22.05 67.0 22.05 L68.95 22.1 Q69.85 22.3 71.5 23.8 Z" fill="none" stroke="#d17e2b" stroke-linecap="butt" stroke-linejoin="miter" stroke-width="1.0"/>
    </g>
  </defs>
</svg>
