<?xml version="1.0" encoding="UTF-8" standalone="no"?>
<svg xmlns:xlink="http://www.w3.org/1999/xlink" height="85.7px" width="81.85px" xmlns="http://www.w3.org/2000/svg">
  <g transform="matrix(1.0, 0.0, 0.0, 1.0, -0.5, 0.6)">
    <use height="74.85" transform="matrix(1.0, 0.0, 0.0, 1.0, 13.4, -0.6)" width="68.95" xlink:href="#shape0"/>
    <use height="11.75" transform="matrix(1.0, 0.0, 0.0, 1.0, 0.5, 24.75)" width="21.2" xlink:href="#text0"/>
    <use height="11.6" transform="matrix(1.0, 0.0, 0.0, 1.0, 45.85, 73.5)" width="21.35" xlink:href="#text1"/>
  </g>
  <defs>
    <g id="shape0" transform="matrix(1.0, 0.0, 0.0, 1.0, -13.4, 0.6)">
      <path d="M49.7 7.0 Q52.65 11.8 54.0 18.75 54.35 20.8 58.95 23.45 65.85 27.45 67.75 29.0 71.95 32.55 73.3 34.6 75.35 37.9 75.5 43.5 75.55 46.5 72.95 50.75 69.85 55.85 65.5 57.25 52.8 61.4 48.95 61.45 40.4 61.55 40.25 51.75 L40.4 45.35 Q40.25 40.2 38.5 34.25 37.75 31.8 29.25 23.6 21.65 16.25 22.5 12.5 23.2 9.35 29.55 4.95 35.65 0.7 39.25 0.5 45.5 0.15 49.7 7.0" fill="#b0c963" fill-rule="evenodd" stroke="none"/>
      <path d="M49.7 7.0 Q45.5 0.15 39.25 0.5 35.65 0.7 29.55 4.95 23.2 9.35 22.5 12.5 21.65 16.25 29.25 23.6 37.75 31.8 38.5 34.25 40.25 40.2 40.4 45.35 L40.25 51.75 Q40.4 61.55 48.95 61.45 52.8 61.4 65.5 57.25 69.85 55.85 72.95 50.75 75.55 46.5 75.5 43.5 75.35 37.9 73.3 34.6 71.95 32.55 67.75 29.0 65.85 27.45 58.95 23.45 54.35 20.8 54.0 18.75 52.65 11.8 49.7 7.0 Z" fill="none" stroke="#78ab44" stroke-linecap="butt" stroke-linejoin="miter" stroke-width="1.0"/>
      <path d="M14.3 2.45 L14.3 61.25" fill="none" stroke="#000000" stroke-linecap="butt" stroke-linejoin="miter" stroke-width="1.0"/>
      <path d="M13.9 2.7 L23.25 2.7" fill="none" stroke="#000000" stroke-linecap="butt" stroke-linejoin="miter" stroke-width="1.0"/>
      <path d="M14.0 60.95 L23.3 60.95" fill="none" stroke="#000000" stroke-linecap="butt" stroke-linejoin="miter" stroke-width="1.0"/>
      <path d="M23.0 73.3 L81.85 73.3" fill="none" stroke="#000000" stroke-linecap="butt" stroke-linejoin="miter" stroke-width="1.0"/>
      <path d="M23.25 73.75 L23.25 64.4" fill="none" stroke="#000000" stroke-linecap="butt" stroke-linejoin="miter" stroke-width="1.0"/>
      <path d="M81.5 73.65 L81.5 64.3" fill="none" stroke="#000000" stroke-linecap="butt" stroke-linejoin="miter" stroke-width="1.0"/>
    </g>
    <g id="text0" transform="matrix(1.0, 0.0, 0.0, 1.0, -0.5, -0.15)">
      <g transform="matrix(1.0, 0.0, 0.0, 1.0, 0.0, 0.0)">
        <use fill="#000000" height="11.75" transform="matrix(0.0117, 0.0, 0.0, 0.0117, 0.0, 11.0)" width="21.2" xlink:href="#font_Arial_30"/>
        <use fill="#000000" height="11.75" transform="matrix(0.0117, 0.0, 0.0, 0.0117, 6.6, 11.0)" width="21.2" xlink:href="#font_Arial_70"/>
      </g>
    </g>
    <g id="font_Arial_30">
      <path d="M43.0 -193.5 Q52.0 -102.0 116.0 -44.5 179.5 13.0 276.0 13.0 383.0 13.0 453.0 -53.5 523.0 -120.5 523.0 -216.5 523.0 -287.5 487.0 -334.5 451.0 -382.0 386.0 -397.0 436.0 -420.0 461.5 -459.0 487.0 -498.0 487.0 -545.5 487.0 -595.5 460.5 -640.0 433.5 -684.5 383.0 -710.0 332.5 -736.0 272.5 -736.0 185.5 -736.0 127.0 -686.0 68.5 -636.5 52.0 -546.0 L142.0 -530.0 Q152.0 -596.0 187.0 -629.0 222.0 -662.0 274.5 -662.0 327.5 -662.0 361.0 -629.5 394.5 -597.0 394.5 -547.5 394.5 -485.0 348.5 -455.0 302.5 -425.0 245.0 -425.0 L230.5 -426.0 220.5 -347.0 Q258.5 -357.0 284.0 -357.0 346.5 -357.0 387.0 -316.5 427.5 -276.5 427.5 -214.5 427.5 -149.5 384.0 -105.5 340.0 -61.5 276.5 -61.5 223.0 -61.5 186.0 -95.0 148.5 -129.0 133.0 -205.5 L43.0 -193.5" fill-rule="evenodd" stroke="none"/>
    </g>
    <g id="font_Arial_70">
      <path d="M48.5 -637.0 L407.5 -637.0 Q339.0 -559.0 278.5 -445.0 217.5 -331.5 185.0 -209.0 152.5 -86.5 151.0 0.0 L243.5 0.0 Q251.0 -109.5 278.0 -201.5 315.5 -332.0 384.5 -455.5 453.0 -579.0 523.0 -653.5 L523.0 -723.5 48.5 -723.5 48.5 -637.0" fill-rule="evenodd" stroke="none"/>
    </g>
    <g id="text1" transform="matrix(1.0, 0.0, 0.0, 1.0, -0.35, -0.15)">
      <g transform="matrix(1.0, 0.0, 0.0, 1.0, 0.0, 0.0)">
        <use fill="#000000" height="11.6" transform="matrix(0.0117, 0.0, 0.0, 0.0117, 0.0, 11.0)" width="21.35" xlink:href="#font_Arial_20"/>
        <use fill="#000000" height="11.6" transform="matrix(0.0117, 0.0, 0.0, 0.0117, 6.6, 11.0)" width="21.35" xlink:href="#font_Arial_70"/>
      </g>
    </g>
    <g id="font_Arial_20">
      <path d="M515.5 -86.5 L156.0 -86.5 Q171.0 -111.0 194.0 -135.0 217.0 -159.5 298.0 -227.5 395.0 -309.5 437.0 -356.5 478.5 -403.5 496.5 -446.0 514.5 -488.5 514.5 -532.5 514.5 -619.0 453.0 -677.5 391.5 -736.0 286.0 -736.0 181.5 -736.0 119.5 -681.5 57.5 -627.5 48.0 -524.0 L140.5 -514.5 Q141.0 -583.5 180.0 -622.5 219.0 -661.5 284.0 -661.5 345.5 -661.5 384.0 -624.5 422.0 -588.0 422.0 -534.5 422.0 -483.5 380.0 -426.0 338.0 -369.0 218.5 -271.0 141.5 -208.0 101.0 -160.0 60.0 -112.0 41.5 -62.5 30.0 -32.5 31.0 0.0 L515.5 0.0 515.5 -86.5" fill-rule="evenodd" stroke="none"/>
    </g>
  </defs>
</svg>
