<?xml version="1.0" encoding="UTF-8" standalone="no"?>
<svg xmlns:xlink="http://www.w3.org/1999/xlink" height="83.3px" width="81.85px" xmlns="http://www.w3.org/2000/svg">
  <g transform="matrix(1.0, 0.0, 0.0, 1.0, -0.5, 0.25)">
    <use height="72.3" transform="matrix(1.0, 0.0, 0.0, 1.0, 13.4, -0.25)" width="68.95" xlink:href="#shape0"/>
    <use height="11.75" transform="matrix(1.0, 0.0, 0.0, 1.0, 0.5, 22.55)" width="21.2" xlink:href="#text0"/>
    <use height="11.75" transform="matrix(1.0, 0.0, 0.0, 1.0, 46.0, 71.3)" width="21.2" xlink:href="#text0"/>
    <use height="33.35" transform="matrix(1.0, 0.0, 0.0, 1.0, 22.15, 22.95)" width="20.55" xlink:href="#shape1"/>
  </g>
  <defs>
    <g id="shape0" transform="matrix(1.0, 0.0, 0.0, 1.0, -13.4, 0.25)">
      <path d="M45.0 40.4 Q43.7 32.75 41.75 26.05 41.05 23.75 34.6 16.5 29.15 10.35 30.0 6.55 30.6 3.85 39.3 4.1 L51.25 4.8 65.2 4.25 Q75.95 4.7 76.75 8.8 77.45 12.55 73.7 20.75 69.55 29.65 69.5 30.8 L69.35 41.6 Q68.8 50.2 66.0 54.3 62.15 59.95 53.85 57.8 50.35 56.9 48.15 54.85 45.8 52.65 46.0 50.05 46.15 47.35 45.0 40.4" fill="#b0c963" fill-rule="evenodd" stroke="none"/>
      <path d="M45.0 40.4 Q46.15 47.35 46.0 50.05 45.8 52.65 48.15 54.85 50.35 56.9 53.85 57.8 62.15 59.95 66.0 54.3 68.8 50.2 69.35 41.6 L69.5 30.8 Q69.55 29.65 73.7 20.75 77.45 12.55 76.75 8.8 75.95 4.7 65.2 4.25 L51.25 4.8 39.3 4.1 Q30.6 3.85 30.0 6.55 29.15 10.35 34.6 16.5 41.05 23.75 41.75 26.05 43.7 32.75 45.0 40.4 Z" fill="none" stroke="#78ab44" stroke-linecap="butt" stroke-linejoin="miter" stroke-width="1.0"/>
      <path d="M14.3 0.25 L14.3 59.05" fill="none" stroke="#000000" stroke-linecap="butt" stroke-linejoin="miter" stroke-width="1.0"/>
      <path d="M13.9 0.5 L23.25 0.5" fill="none" stroke="#000000" stroke-linecap="butt" stroke-linejoin="miter" stroke-width="1.0"/>
      <path d="M14.0 58.75 L23.3 58.75" fill="none" stroke="#000000" stroke-linecap="butt" stroke-linejoin="miter" stroke-width="1.0"/>
      <path d="M23.0 71.1 L81.85 71.1" fill="none" stroke="#000000" stroke-linecap="butt" stroke-linejoin="miter" stroke-width="1.0"/>
      <path d="M23.25 71.55 L23.25 62.2" fill="none" stroke="#000000" stroke-linecap="butt" stroke-linejoin="miter" stroke-width="1.0"/>
      <path d="M81.5 71.45 L81.5 62.1" fill="none" stroke="#000000" stroke-linecap="butt" stroke-linejoin="miter" stroke-width="1.0"/>
    </g>
    <g id="text0" transform="matrix(1.0, 0.0, 0.0, 1.0, -0.5, -0.15)">
      <g transform="matrix(1.0, 0.0, 0.0, 1.0, 0.0, 0.0)">
        <use fill="#000000" height="11.75" transform="matrix(0.0117, 0.0, 0.0, 0.0117, 0.0, 11.0)" width="21.2" xlink:href="#font_Arial_30"/>
        <use fill="#000000" height="11.75" transform="matrix(0.0117, 0.0, 0.0, 0.0117, 6.6, 11.0)" width="21.2" xlink:href="#font_Arial_00"/>
      </g>
    </g>
    <g id="font_Arial_30">
      <path d="M43.0 -193.5 Q52.0 -102.0 116.0 -44.5 179.5 13.0 276.0 13.0 383.0 13.0 453.0 -53.5 523.0 -120.5 523.0 -216.5 523.0 -287.5 487.0 -334.5 451.0 -382.0 386.0 -397.0 436.0 -420.0 461.5 -459.0 487.0 -498.0 487.0 -545.5 487.0 -595.5 460.5 -640.0 433.5 -684.5 383.0 -710.0 332.5 -736.0 272.5 -736.0 185.5 -736.0 127.0 -686.0 68.5 -636.5 52.0 -546.0 L142.0 -530.0 Q152.0 -596.0 187.0 -629.0 222.0 -662.0 274.5 -662.0 327.5 -662.0 361.0 -629.5 394.5 -597.0 394.5 -547.5 394.5 -485.0 348.5 -455.0 302.5 -425.0 245.0 -425.0 L230.5 -426.0 220.5 -347.0 Q258.5 -357.0 284.0 -357.0 346.5 -357.0 387.0 -316.5 427.5 -276.5 427.5 -214.5 427.5 -149.5 384.0 -105.5 340.0 -61.5 276.5 -61.5 223.0 -61.5 186.0 -95.0 148.5 -129.0 133.0 -205.5 L43.0 -193.5" fill-rule="evenodd" stroke="none"/>
    </g>
    <g id="font_Arial_00">
      <path d="M135.0 -361.5 Q135.0 -542.0 181.5 -609.0 218.5 -661.5 280.5 -661.5 343.5 -661.5 386.0 -602.0 428.0 -542.5 428.0 -361.5 428.0 -181.5 386.0 -121.5 343.5 -61.5 281.5 -61.5 219.5 -61.5 177.5 -121.0 135.0 -181.0 135.0 -361.5 M42.5 -361.5 Q42.5 -155.0 115.0 -63.5 175.5 12.5 281.5 12.5 362.0 12.5 415.0 -30.5 467.5 -74.0 494.0 -153.0 520.5 -232.5 520.5 -361.5 520.5 -470.5 504.0 -534.5 487.5 -599.0 458.5 -643.5 429.5 -688.5 385.0 -712.0 340.5 -736.0 281.5 -736.0 201.5 -736.0 149.0 -693.0 96.0 -650.0 69.5 -570.5 42.5 -491.5 42.5 -361.5" fill-rule="evenodd" stroke="none"/>
    </g>
    <g id="shape1" transform="matrix(1.0, 0.0, 0.0, 1.0, -22.15, -22.95)">
      <path d="M23.0 44.3 Q22.65 42.1 24.15 35.25 25.6 28.55 26.75 26.8 28.75 23.8 31.15 23.5 32.5 23.3 35.5 24.3 37.9 25.1 40.6 38.05 43.3 51.2 41.25 54.55 39.9 56.75 34.4 55.0 29.7 53.5 27.0 51.3 26.25 50.7 24.95 48.7 23.3 46.2 23.0 44.3" fill="#ebd79b" fill-rule="evenodd" stroke="none"/>
      <path d="M23.0 44.3 Q23.3 46.2 24.95 48.7 26.25 50.7 27.0 51.3 29.7 53.5 34.4 55.0 39.9 56.75 41.25 54.55 43.3 51.2 40.6 38.05 37.9 25.1 35.5 24.3 32.5 23.3 31.15 23.5 28.75 23.8 26.75 26.8 25.6 28.55 24.15 35.25 22.65 42.1 23.0 44.3 Z" fill="none" stroke="#d17e2b" stroke-linecap="butt" stroke-linejoin="miter" stroke-width="1.0"/>
    </g>
  </defs>
</svg>
