<?xml version="1.0" encoding="UTF-8" standalone="no"?>
<svg xmlns:xlink="http://www.w3.org/1999/xlink" height="83.3px" width="81.85px" xmlns="http://www.w3.org/2000/svg">
  <g transform="matrix(1.0, 0.0, 0.0, 1.0, -0.5, 0.25)">
    <use height="72.3" transform="matrix(1.0, 0.0, 0.0, 1.0, 13.4, -0.25)" width="68.95" xlink:href="#shape0"/>
    <use height="11.75" transform="matrix(1.0, 0.0, 0.0, 1.0, 0.5, 22.55)" width="21.2" xlink:href="#text0"/>
    <use height="11.75" transform="matrix(1.0, 0.0, 0.0, 1.0, 46.0, 71.3)" width="21.2" xlink:href="#text1"/>
    <use height="57.55" transform="matrix(1.0, 0.0, 0.0, 1.0, 29.2, 2.5)" width="52.1" xlink:href="#shape1"/>
  </g>
  <defs>
    <g id="shape0" transform="matrix(1.0, 0.0, 0.0, 1.0, -13.4, 0.25)">
      <path d="M47.75 9.05 Q49.15 7.55 53.05 7.1 L61.25 7.5 Q72.05 9.55 74.0 16.3 76.05 23.7 70.15 28.45 L65.25 31.95 Q62.55 33.95 61.75 35.8 60.55 38.65 63.15 43.7 65.4 48.05 62.75 50.55 60.35 52.85 54.25 52.15 48.65 51.5 42.35 48.75 35.95 45.95 32.25 42.55 28.2 38.8 29.25 35.8 31.25 30.15 37.85 21.15 42.95 14.15 47.75 9.05" fill="#b0c963" fill-rule="evenodd" stroke="none"/>
      <path d="M47.75 9.05 Q42.95 14.15 37.85 21.15 31.25 30.15 29.25 35.8 28.2 38.8 32.25 42.55 35.95 45.95 42.35 48.75 48.65 51.5 54.25 52.15 60.35 52.85 62.75 50.55 65.4 48.05 63.15 43.7 60.55 38.65 61.75 35.8 62.55 33.95 65.25 31.95 L70.15 28.45 Q76.05 23.7 74.0 16.3 72.05 9.55 61.25 7.5 L53.05 7.1 Q49.15 7.55 47.75 9.05 Z" fill="none" stroke="#78ab44" stroke-linecap="butt" stroke-linejoin="miter" stroke-width="1.0"/>
      <path d="M14.3 0.25 L14.3 59.05" fill="none" stroke="#000000" stroke-linecap="butt" stroke-linejoin="miter" stroke-width="1.0"/>
      <path d="M13.9 0.5 L23.25 0.5" fill="none" stroke="#000000" stroke-linecap="butt" stroke-linejoin="miter" stroke-width="1.0"/>
      <path d="M14.0 58.75 L23.3 58.75" fill="none" stroke="#000000" stroke-linecap="butt" stroke-linejoin="miter" stroke-width="1.0"/>
      <path d="M23.0 71.1 L81.85 71.1" fill="none" stroke="#000000" stroke-linecap="butt" stroke-linejoin="miter" stroke-width="1.0"/>
      <path d="M23.25 71.55 L23.25 62.2" fill="none" stroke="#000000" stroke-linecap="butt" stroke-linejoin="miter" stroke-width="1.0"/>
      <path d="M81.5 71.45 L81.5 62.1" fill="none" stroke="#000000" stroke-linecap="butt" stroke-linejoin="miter" stroke-width="1.0"/>
    </g>
    <g id="text0" transform="matrix(1.0, 0.0, 0.0, 1.0, -0.5, -0.15)">
      <g transform="matrix(1.0, 0.0, 0.0, 1.0, 0.0, 0.0)">
        <use fill="#000000" height="11.75" transform="matrix(0.0117, 0.0, 0.0, 0.0117, 0.0, 11.0)" width="21.2" xlink:href="#font_Arial_30"/>
        <use fill="#000000" height="11.75" transform="matrix(0.0117, 0.0, 0.0, 0.0117, 6.6, 11.0)" width="21.2" xlink:href="#font_Arial_00"/>
      </g>
    </g>
    <g id="font_Arial_30">
      <path d="M43.0 -193.5 Q52.0 -102.0 116.0 -44.5 179.5 13.0 276.0 13.0 383.0 13.0 453.0 -53.5 523.0 -120.5 523.0 -216.5 523.0 -287.5 487.0 -334.5 451.0 -382.0 386.0 -397.0 436.0 -420.0 461.5 -459.0 487.0 -498.0 487.0 -545.5 487.0 -595.5 460.5 -640.0 433.5 -684.5 383.0 -710.0 332.5 -736.0 272.5 -736.0 185.5 -736.0 127.0 -686.0 68.5 -636.5 52.0 -546.0 L142.0 -530.0 Q152.0 -596.0 187.0 -629.0 222.0 -662.0 274.5 -662.0 327.5 -662.0 361.0 -629.5 394.5 -597.0 394.5 -547.5 394.5 -485.0 348.5 -455.0 302.5 -425.0 245.0 -425.0 L230.5 -426.0 220.5 -347.0 Q258.5 -357.0 284.0 -357.0 346.5 -357.0 387.0 -316.5 427.5 -276.5 427.5 -214.5 427.5 -149.5 384.0 -105.5 340.0 -61.5 276.5 -61.5 223.0 -61.5 186.0 -95.0 148.5 -129.0 133.0 -205.5 L43.0 -193.5" fill-rule="evenodd" stroke="none"/>
    </g>
    <g id="font_Arial_00">
      <path d="M135.0 -361.5 Q135.0 -542.0 181.5 -609.0 218.5 -661.5 280.5 -661.5 343.5 -661.5 386.0 -602.0 428.0 -542.5 428.0 -361.5 428.0 -181.5 386.0 -121.5 343.5 -61.5 281.5 -61.5 219.5 -61.5 177.5 -121.0 135.0 -181.0 135.0 -361.5 M42.5 -361.5 Q42.5 -155.0 115.0 -63.5 175.5 12.5 281.5 12.5 362.0 12.5 415.0 -30.5 467.5 -74.0 494.0 -153.0 520.5 -232.5 520.5 -361.5 520.5 -470.5 504.0 -534.5 487.5 -599.0 458.5 -643.5 429.5 -688.5 385.0 -712.0 340.5 -736.0 281.5 -736.0 201.5 -736.0 149.0 -693.0 96.0 -650.0 69.5 -570.5 42.5 -491.5 42.5 -361.5" fill-rule="evenodd" stroke="none"/>
    </g>
    <g id="text1" transform="matrix(1.0, 0.0, 0.0, 1.0, -0.5, -0.15)">
      <g transform="matrix(1.0, 0.0, 0.0, 1.0, 0.0, 0.0)">
        <use fill="#000000" height="11.75" transform="matrix(0.0117, 0.0, 0.0, 0.0117, 0.0, 11.0)" width="21.2" xlink:href="#font_Arial_30"/>
        <use fill="#000000" height="11.75" transform="matrix(0.0117, 0.0, 0.0, 0.0117, 6.6, 11.0)" width="21.2" xlink:href="#font_Arial_50"/>
      </g>
    </g>
    <g id="font_Arial_50">
      <path d="M42.5 -192.0 Q51.5 -99.5 115.0 -43.5 178.0 12.5 278.0 12.5 400.0 12.5 470.5 -76.5 528.5 -149.0 528.5 -248.5 528.5 -353.0 462.5 -419.5 396.5 -486.0 300.5 -486.0 228.0 -486.0 162.0 -440.0 182.0 -538.5 201.5 -637.0 L494.0 -637.0 494.0 -723.0 129.5 -723.0 58.5 -346.5 143.0 -335.5 Q163.0 -367.0 198.0 -386.5 233.0 -406.5 276.5 -406.5 346.5 -406.5 390.0 -362.0 433.0 -317.5 433.0 -240.5 433.0 -159.5 388.0 -110.5 343.0 -61.5 278.0 -61.5 224.0 -61.5 186.0 -96.0 147.5 -131.0 137.0 -200.0 L42.5 -192.0" fill-rule="evenodd" stroke="none"/>
    </g>
    <g id="shape1" transform="matrix(1.0, 0.0, 0.0, 1.0, -29.2, -2.5)">
      <path d="M29.75 14.8 Q29.45 13.05 31.5 11.65 L34.75 9.05 Q37.15 5.45 38.75 4.25 40.6 2.85 42.75 3.55 45.05 4.3 39.8 13.65 34.55 22.95 32.5 21.3 31.95 20.85 31.05 18.95 30.05 16.8 29.75 14.8" fill="#ebd79b" fill-rule="evenodd" stroke="none"/>
      <path d="M29.75 14.8 Q30.05 16.8 31.05 18.95 31.95 20.85 32.5 21.3 34.55 22.95 39.8 13.65 45.05 4.3 42.75 3.55 40.6 2.85 38.75 4.25 37.15 5.45 34.75 9.05 L31.5 11.65 Q29.45 13.05 29.75 14.8 Z" fill="none" stroke="#d17e2b" stroke-linecap="butt" stroke-linejoin="miter" stroke-width="1.0"/>
      <path d="M69.25 44.8 Q69.45 41.2 70.15 39.85 70.75 38.65 72.5 38.05 73.4 37.75 74.9 34.35 76.4 30.9 78.75 30.05 81.55 29.05 80.55 38.75 79.55 48.55 78.25 48.8 77.2 49.0 74.0 51.85 70.55 54.85 69.0 57.3 67.4 59.8 64.8 59.5 62.3 59.25 61.5 57.05 61.05 55.75 64.9 51.75 69.1 47.45 69.25 44.8" fill="#ebd79b" fill-rule="evenodd" stroke="none"/>
      <path d="M69.25 44.8 Q69.1 47.45 64.9 51.75 61.05 55.75 61.5 57.05 62.3 59.25 64.8 59.5 67.4 59.8 69.0 57.3 70.55 54.85 74.0 51.85 77.2 49.0 78.25 48.8 79.55 48.55 80.55 38.75 81.55 29.05 78.75 30.05 76.4 30.9 74.9 34.35 73.4 37.75 72.5 38.05 70.75 38.65 70.15 39.85 69.45 41.2 69.25 44.8 Z" fill="none" stroke="#d17e2b" stroke-linecap="butt" stroke-linejoin="miter" stroke-width="1.0"/>
    </g>
  </defs>
</svg>
