<?xml version="1.0" encoding="UTF-8" standalone="no"?>
<svg xmlns:xlink="http://www.w3.org/1999/xlink" height="85.25px" width="83.05px" xmlns="http://www.w3.org/2000/svg">
  <g transform="matrix(1.0, 0.0, 0.0, 1.0, -0.5, 0.25)">
    <use height="59.8" transform="matrix(1.0, 0.0, 0.0, 1.0, 13.4, -0.25)" width="56.1" xlink:href="#shape0"/>
    <use height="11.75" transform="matrix(1.0, 0.0, 0.0, 1.0, 0.5, 22.55)" width="21.2" xlink:href="#text0"/>
    <use height="69.15" transform="matrix(1.0, 0.0, 0.0, 1.0, 23.7, 4.8)" width="59.85" xlink:href="#shape1"/>
    <use height="11.75" transform="matrix(1.0, 0.0, 0.0, 1.0, 47.05, 73.25)" width="21.35" xlink:href="#text1"/>
  </g>
  <defs>
    <g id="shape0" transform="matrix(1.0, 0.0, 0.0, 1.0, -13.4, 0.25)">
      <path d="M49.75 14.3 L53.55 9.0 Q56.4 5.35 59.0 5.55 61.35 5.75 64.4 9.55 67.25 13.1 68.25 16.55 70.35 24.0 66.4 27.7 L62.85 30.5 Q60.8 32.2 60.0 34.05 59.05 36.3 58.65 43.6 58.35 49.35 55.5 52.05 52.55 54.85 46.1 54.15 39.6 53.45 35.25 49.8 32.15 47.3 31.1 42.95 30.15 39.05 31.25 36.05 33.1 30.8 39.85 23.9 43.5 20.15 49.75 14.3" fill="#b0c963" fill-rule="evenodd" stroke="none"/>
      <path d="M49.75 14.3 Q43.5 20.15 39.85 23.9 33.1 30.8 31.25 36.05 30.15 39.05 31.1 42.95 32.15 47.3 35.25 49.8 39.6 53.45 46.1 54.15 52.55 54.85 55.5 52.05 58.35 49.35 58.65 43.6 59.05 36.3 60.0 34.05 60.8 32.2 62.85 30.5 L66.4 27.7 Q70.35 24.0 68.25 16.55 67.25 13.1 64.4 9.55 61.35 5.75 59.0 5.55 56.4 5.35 53.55 9.0 L49.75 14.3 Z" fill="none" stroke="#78ab44" stroke-linecap="butt" stroke-linejoin="miter" stroke-width="1.0"/>
      <path d="M14.3 0.25 L14.3 59.05" fill="none" stroke="#000000" stroke-linecap="butt" stroke-linejoin="miter" stroke-width="1.0"/>
      <path d="M13.9 0.5 L23.25 0.5" fill="none" stroke="#000000" stroke-linecap="butt" stroke-linejoin="miter" stroke-width="1.0"/>
      <path d="M14.0 58.75 L23.3 58.75" fill="none" stroke="#000000" stroke-linecap="butt" stroke-linejoin="miter" stroke-width="1.0"/>
    </g>
    <g id="text0" transform="matrix(1.0, 0.0, 0.0, 1.0, -0.5, -0.15)">
      <g transform="matrix(1.0, 0.0, 0.0, 1.0, 0.0, 0.0)">
        <use fill="#000000" height="11.75" transform="matrix(0.0117, 0.0, 0.0, 0.0117, 0.0, 11.0)" width="21.2" xlink:href="#font_Arial_30"/>
        <use fill="#000000" height="11.75" transform="matrix(0.0117, 0.0, 0.0, 0.0117, 6.6, 11.0)" width="21.2" xlink:href="#font_Arial_00"/>
      </g>
    </g>
    <g id="font_Arial_30">
      <path d="M43.0 -193.5 Q52.0 -102.0 116.0 -44.5 179.5 13.0 276.0 13.0 383.0 13.0 453.0 -53.5 523.0 -120.5 523.0 -216.5 523.0 -287.5 487.0 -334.5 451.0 -382.0 386.0 -397.0 436.0 -420.0 461.5 -459.0 487.0 -498.0 487.0 -545.5 487.0 -595.5 460.5 -640.0 433.5 -684.5 383.0 -710.0 332.5 -736.0 272.5 -736.0 185.5 -736.0 127.0 -686.0 68.5 -636.5 52.0 -546.0 L142.0 -530.0 Q152.0 -596.0 187.0 -629.0 222.0 -662.0 274.5 -662.0 327.5 -662.0 361.0 -629.5 394.5 -597.0 394.5 -547.5 394.5 -485.0 348.5 -455.0 302.5 -425.0 245.0 -425.0 L230.5 -426.0 220.5 -347.0 Q258.5 -357.0 284.0 -357.0 346.5 -357.0 387.0 -316.5 427.5 -276.5 427.5 -214.5 427.5 -149.5 384.0 -105.5 340.0 -61.5 276.5 -61.5 223.0 -61.5 186.0 -95.0 148.5 -129.0 133.0 -205.5 L43.0 -193.5" fill-rule="evenodd" stroke="none"/>
    </g>
    <g id="font_Arial_00">
      <path d="M135.0 -361.5 Q135.0 -542.0 181.5 -609.0 218.5 -661.5 280.5 -661.5 343.5 -661.5 386.0 -602.0 428.0 -542.5 428.0 -361.5 428.0 -181.5 386.0 -121.5 343.5 -61.5 281.5 -61.5 219.5 -61.5 177.5 -121.0 135.0 -181.0 135.0 -361.5 M42.5 -361.5 Q42.5 -155.0 115.0 -63.5 175.5 12.5 281.5 12.5 362.0 12.5 415.0 -30.5 467.5 -74.0 494.0 -153.0 520.5 -232.5 520.5 -361.5 520.5 -470.5 504.0 -534.5 487.5 -599.0 458.5 -643.5 429.5 -688.5 385.0 -712.0 340.5 -736.0 281.5 -736.0 201.5 -736.0 149.0 -693.0 96.0 -650.0 69.5 -570.5 42.5 -491.5 42.5 -361.5" fill-rule="evenodd" stroke="none"/>
    </g>
    <g id="shape1" transform="matrix(1.0, 0.0, 0.0, 1.0, -23.7, -4.8)">
      <path d="M43.0 5.5 L47.75 5.3 Q49.9 6.0 44.15 13.85 38.4 21.65 36.0 22.05 33.95 22.4 33.05 21.1 32.4 20.15 32.0 17.55 31.7 15.8 34.4 13.4 L38.25 9.8 Q40.4 6.6 43.0 5.5" fill="#ebd79b" fill-rule="evenodd" stroke="none"/>
      <path d="M43.0 5.5 Q40.4 6.6 38.25 9.8 L34.4 13.4 Q31.7 15.8 32.0 17.55 32.4 20.15 33.05 21.1 33.95 22.4 36.0 22.05 38.4 21.65 44.15 13.85 49.9 6.0 47.75 5.3 L43.0 5.5 Z" fill="none" stroke="#d17e2b" stroke-linecap="butt" stroke-linejoin="miter" stroke-width="1.0"/>
      <path d="M73.25 34.2 Q74.85 36.65 77.25 35.8 78.95 35.2 79.8 37.05 80.65 39.05 78.25 41.55 L75.55 42.15 Q73.2 42.55 72.0 44.3 70.55 46.5 66.55 48.75 62.6 51.05 62.25 50.05 61.75 48.65 63.65 44.15 65.9 38.95 66.0 36.55 66.15 33.4 67.65 32.7 68.5 32.3 70.75 32.05 71.6 31.75 73.25 34.2" fill="#ebd79b" fill-rule="evenodd" stroke="none"/>
      <path d="M73.25 34.2 Q71.6 31.75 70.75 32.05 68.5 32.3 67.65 32.7 66.15 33.4 66.0 36.55 65.9 38.95 63.65 44.15 61.75 48.65 62.25 50.05 62.6 51.05 66.55 48.75 70.55 46.5 72.0 44.3 73.2 42.55 75.55 42.15 L78.25 41.55 Q80.65 39.05 79.8 37.05 78.95 35.2 77.25 35.8 74.85 36.65 73.25 34.2 Z" fill="none" stroke="#d17e2b" stroke-linecap="butt" stroke-linejoin="miter" stroke-width="1.0"/>
      <path d="M24.2 73.0 L83.05 73.0" fill="none" stroke="#000000" stroke-linecap="butt" stroke-linejoin="miter" stroke-width="1.0"/>
      <path d="M24.45 73.45 L24.45 64.1" fill="none" stroke="#000000" stroke-linecap="butt" stroke-linejoin="miter" stroke-width="1.0"/>
      <path d="M82.7 73.35 L82.7 64.0" fill="none" stroke="#000000" stroke-linecap="butt" stroke-linejoin="miter" stroke-width="1.0"/>
    </g>
    <g id="text1" transform="matrix(1.0, 0.0, 0.0, 1.0, -0.35, -0.15)">
      <g transform="matrix(1.0, 0.0, 0.0, 1.0, 0.0, 0.0)">
        <use fill="#000000" height="11.75" transform="matrix(0.0117, 0.0, 0.0, 0.0117, 0.0, 11.0)" width="21.35" xlink:href="#font_Arial_20"/>
        <use fill="#000000" height="11.75" transform="matrix(0.0117, 0.0, 0.0, 0.0117, 6.6, 11.0)" width="21.35" xlink:href="#font_Arial_50"/>
      </g>
    </g>
    <g id="font_Arial_20">
      <path d="M515.5 -86.5 L156.0 -86.5 Q171.0 -111.0 194.0 -135.0 217.0 -159.5 298.0 -227.5 395.0 -309.5 437.0 -356.5 478.5 -403.5 496.5 -446.0 514.5 -488.5 514.5 -532.5 514.5 -619.0 453.0 -677.5 391.5 -736.0 286.0 -736.0 181.5 -736.0 119.5 -681.5 57.5 -627.5 48.0 -524.0 L140.5 -514.5 Q141.0 -583.5 180.0 -622.5 219.0 -661.5 284.0 -661.5 345.5 -661.5 384.0 -624.5 422.0 -588.0 422.0 -534.5 422.0 -483.5 380.0 -426.0 338.0 -369.0 218.5 -271.0 141.5 -208.0 101.0 -160.0 60.0 -112.0 41.5 -62.5 30.0 -32.5 31.0 0.0 L515.5 0.0 515.5 -86.5" fill-rule="evenodd" stroke="none"/>
    </g>
    <g id="font_Arial_50">
      <path d="M42.5 -192.0 Q51.5 -99.5 115.0 -43.5 178.0 12.5 278.0 12.5 400.0 12.5 470.5 -76.5 528.5 -149.0 528.5 -248.5 528.5 -353.0 462.5 -419.5 396.5 -486.0 300.5 -486.0 228.0 -486.0 162.0 -440.0 182.0 -538.5 201.5 -637.0 L494.0 -637.0 494.0 -723.0 129.5 -723.0 58.5 -346.5 143.0 -335.5 Q163.0 -367.0 198.0 -386.5 233.0 -406.5 276.5 -406.5 346.5 -406.5 390.0 -362.0 433.0 -317.5 433.0 -240.5 433.0 -159.5 388.0 -110.5 343.0 -61.5 278.0 -61.5 224.0 -61.5 186.0 -96.0 147.5 -131.0 137.0 -200.0 L42.5 -192.0" fill-rule="evenodd" stroke="none"/>
    </g>
  </defs>
</svg>
