<?xml version="1.0" encoding="UTF-8" standalone="no"?>
<svg xmlns:xlink="http://www.w3.org/1999/xlink" height="86.75px" width="85.2px" xmlns="http://www.w3.org/2000/svg">
  <g transform="matrix(1.0, 0.0, 0.0, 1.0, -1.3, 0.0)">
    <use height="72.3" transform="matrix(1.0, 0.0, 0.0, 1.0, 13.4, 3.4)" width="68.95" xlink:href="#shape0"/>
    <use height="11.6" transform="matrix(1.0, 0.0, 0.0, 1.0, 1.3, 26.25)" width="19.5" xlink:href="#text0"/>
    <use height="11.75" transform="matrix(1.0, 0.0, 0.0, 1.0, 45.85, 75.0)" width="21.35" xlink:href="#text1"/>
    <use height="60.1" transform="matrix(1.0, 0.0, 0.0, 1.0, 41.45, 0.0)" width="45.05" xlink:href="#shape1"/>
  </g>
  <defs>
    <g id="shape0" transform="matrix(1.0, 0.0, 0.0, 1.0, -13.4, -3.4)">
      <path d="M42.95 11.3 Q49.2 11.1 54.25 11.5 L65.2 13.0 Q73.8 14.85 74.0 17.75 74.45 23.25 68.25 26.35 64.85 27.9 63.35 28.75 60.8 30.3 60.0 32.25 59.15 34.25 58.15 42.25 57.35 48.55 54.5 51.25 51.05 54.45 45.6 55.55 39.25 56.8 35.25 53.5 30.6 49.7 34.5 39.0 35.95 34.9 33.2 24.7 30.8 15.6 33.25 13.0 34.6 11.55 42.95 11.3" fill="#b0c963" fill-rule="evenodd" stroke="none"/>
      <path d="M42.95 11.3 Q34.6 11.55 33.25 13.0 30.8 15.6 33.2 24.7 35.95 34.9 34.5 39.0 30.6 49.7 35.25 53.5 39.25 56.8 45.6 55.55 51.05 54.45 54.5 51.25 57.35 48.55 58.15 42.25 59.15 34.25 60.0 32.25 60.8 30.3 63.35 28.75 64.85 27.9 68.25 26.35 74.45 23.25 74.0 17.75 73.8 14.85 65.2 13.0 L54.25 11.5 Q49.2 11.1 42.95 11.3 Z" fill="none" stroke="#78ab44" stroke-linecap="butt" stroke-linejoin="miter" stroke-width="1.0"/>
      <path d="M14.3 3.9 L14.3 62.75" fill="none" stroke="#000000" stroke-linecap="butt" stroke-linejoin="miter" stroke-width="1.0"/>
      <path d="M13.9 4.15 L23.25 4.15" fill="none" stroke="#000000" stroke-linecap="butt" stroke-linejoin="miter" stroke-width="1.0"/>
      <path d="M14.0 62.4 L23.3 62.4" fill="none" stroke="#000000" stroke-linecap="butt" stroke-linejoin="miter" stroke-width="1.0"/>
      <path d="M23.0 74.75 L81.85 74.75" fill="none" stroke="#000000" stroke-linecap="butt" stroke-linejoin="miter" stroke-width="1.0"/>
      <path d="M23.25 75.2 L23.25 65.85" fill="none" stroke="#000000" stroke-linecap="butt" stroke-linejoin="miter" stroke-width="1.0"/>
      <path d="M81.5 75.1 L81.5 65.75" fill="none" stroke="#000000" stroke-linecap="butt" stroke-linejoin="miter" stroke-width="1.0"/>
    </g>
    <g id="text0" transform="matrix(1.0, 0.0, 0.0, 1.0, -1.3, -0.15)">
      <g transform="matrix(1.0, 0.0, 0.0, 1.0, 0.0, 0.0)">
        <use fill="#000000" height="11.6" transform="matrix(0.0117, 0.0, 0.0, 0.0117, 0.0, 11.0)" width="19.5" xlink:href="#font_Arial_10"/>
        <use fill="#000000" height="11.6" transform="matrix(0.0117, 0.0, 0.0, 0.0117, 5.7, 11.0)" width="19.5" xlink:href="#font_Arial_10"/>
      </g>
    </g>
    <g id="font_Arial_10">
      <path d="M381.5 0.0 L381.5 -736.0 323.5 -736.0 Q300.0 -688.5 243.5 -638.0 187.0 -587.5 111.5 -552.0 L111.5 -465.0 Q153.5 -480.5 206.5 -511.5 259.0 -542.5 291.5 -573.5 L291.5 0.0 381.5 0.0" fill-rule="evenodd" stroke="none"/>
    </g>
    <g id="text1" transform="matrix(1.0, 0.0, 0.0, 1.0, -0.35, -0.15)">
      <g transform="matrix(1.0, 0.0, 0.0, 1.0, 0.0, 0.0)">
        <use fill="#000000" height="11.75" transform="matrix(0.0117, 0.0, 0.0, 0.0117, 0.0, 11.0)" width="21.35" xlink:href="#font_Arial_20"/>
        <use fill="#000000" height="11.75" transform="matrix(0.0117, 0.0, 0.0, 0.0117, 6.6, 11.0)" width="21.35" xlink:href="#font_Arial_50"/>
      </g>
    </g>
    <g id="font_Arial_20">
      <path d="M515.5 -86.5 L156.0 -86.5 Q171.0 -111.0 194.0 -135.0 217.0 -159.5 298.0 -227.5 395.0 -309.5 437.0 -356.5 478.5 -403.5 496.5 -446.0 514.5 -488.5 514.5 -532.5 514.5 -619.0 453.0 -677.5 391.5 -736.0 286.0 -736.0 181.5 -736.0 119.5 -681.5 57.5 -627.5 48.0 -524.0 L140.5 -514.5 Q141.0 -583.5 180.0 -622.5 219.0 -661.5 284.0 -661.5 345.5 -661.5 384.0 -624.5 422.0 -588.0 422.0 -534.5 422.0 -483.5 380.0 -426.0 338.0 -369.0 218.5 -271.0 141.5 -208.0 101.0 -160.0 60.0 -112.0 41.5 -62.5 30.0 -32.5 31.0 0.0 L515.5 0.0 515.5 -86.5" fill-rule="evenodd" stroke="none"/>
    </g>
    <g id="font_Arial_50">
      <path d="M42.5 -192.0 Q51.5 -99.5 115.0 -43.5 178.0 12.5 278.0 12.5 400.0 12.5 470.5 -76.5 528.5 -149.0 528.5 -248.5 528.5 -353.0 462.5 -419.5 396.5 -486.0 300.5 -486.0 228.0 -486.0 162.0 -440.0 182.0 -538.5 201.5 -637.0 L494.0 -637.0 494.0 -723.0 129.5 -723.0 58.5 -346.5 143.0 -335.5 Q163.0 -367.0 198.0 -386.5 233.0 -406.5 276.5 -406.5 346.5 -406.5 390.0 -362.0 433.0 -317.5 433.0 -240.5 433.0 -159.5 388.0 -110.5 343.0 -61.5 278.0 -61.5 224.0 -61.5 186.0 -96.0 147.5 -131.0 137.0 -200.0 L42.5 -192.0" fill-rule="evenodd" stroke="none"/>
    </g>
    <g id="shape1" transform="matrix(1.0, 0.0, 0.0, 1.0, -41.45, 0.0)">
      <path d="M81.75 29.75 Q83.95 30.5 85.2 33.0 86.65 36.0 84.25 38.5 L78.2 40.3 Q72.45 41.95 71.25 43.75 70.95 44.2 71.0 49.7 71.0 54.95 70.0 55.5 L65.3 58.05 Q61.1 59.95 58.25 59.5 55.35 59.0 56.8 55.4 57.65 53.35 60.25 49.75 62.85 46.2 63.25 38.0 63.55 32.4 69.25 30.5 71.8 29.65 74.75 29.3 78.95 28.8 81.75 29.75" fill="#ebd79b" fill-rule="evenodd" stroke="none"/>
      <path d="M81.75 29.75 Q78.95 28.8 74.75 29.3 71.8 29.65 69.25 30.5 63.55 32.4 63.25 38.0 62.85 46.2 60.25 49.75 57.65 53.35 56.8 55.4 55.35 59.0 58.25 59.5 61.1 59.95 65.3 58.05 L70.0 55.5 Q71.0 54.95 71.0 49.7 70.95 44.2 71.25 43.75 72.45 41.95 78.2 40.3 L84.25 38.5 Q86.65 36.0 85.2 33.0 83.95 30.5 81.75 29.75 Z" fill="none" stroke="#d17e2b" stroke-linecap="butt" stroke-linejoin="miter" stroke-width="1.0"/>
      <path d="M42.0 3.75 Q41.5 1.15 45.25 0.65 48.4 0.2 53.75 1.25 58.8 2.25 62.95 5.55 67.15 8.95 62.0 8.75 L49.55 7.55 Q42.5 6.25 42.0 3.75" fill="#ebd79b" fill-rule="evenodd" stroke="none"/>
      <path d="M42.0 3.75 Q41.5 1.15 45.25 0.65 48.4 0.2 53.75 1.25 58.8 2.25 62.95 5.55 67.15 8.95 62.0 8.75 L49.55 7.55 Q42.5 6.25 42.0 3.75 Z" fill="none" stroke="#d17e2b" stroke-linecap="butt" stroke-linejoin="miter" stroke-width="1.0"/>
    </g>
  </defs>
</svg>
